<?xml version="1.0" encoding="UTF-8"?>
<!DOCTYPE svg PUBLIC "-//W3C//DTD SVG 1.1//EN" "http://www.w3.org/Graphics/SVG/1.1/DTD/svg11.dtd">
<svg xmlns="http://www.w3.org/2000/svg" version="1.1" width="140px" height="125px" style="shape-rendering:geometricPrecision; text-rendering:geometricPrecision; image-rendering:optimizeQuality; fill-rule:evenodd; clip-rule:evenodd" xmlns:xlink="http://www.w3.org/1999/xlink">
<g><path style="opacity:1" fill="#fdfdfd" d="M -0.5,0.5 C 46.1667,0.5 92.8333,0.5 139.5,0.5C 139.5,41.8333 139.5,83.1667 139.5,124.5C 92.8333,124.5 46.1667,124.5 -0.5,124.5C -0.5,83.1667 -0.5,41.8333 -0.5,0.5 Z"/></g>
<g><path style="opacity:1" fill="#264063" d="M 82.5,18.5 C 81.5084,25.6476 81.175,32.9809 81.5,40.5C 82.5,40.5 83.5,40.5 84.5,40.5C 93.8028,42.7277 103.136,44.8944 112.5,47C 116.24,50.0154 116.406,53.182 113,56.5C 112.667,74.1667 112.333,91.8333 112,109.5C 82.9052,110.662 53.7385,110.828 24.5,110C 23.6711,81.9053 23.1711,53.7386 23,25.5C 20.7453,22.275 21.2453,19.6083 24.5,17.5C 31.5544,17.1829 38.5544,16.3495 45.5,15C 46.4158,14.7216 47.0825,14.2216 47.5,13.5C 57.6385,11.7893 67.8052,10.1226 78,8.5C 84.1819,9.8575 85.6819,13.1908 82.5,18.5 Z"/></g>
<g><path style="opacity:1" fill="#455b79" d="M 47.5,13.5 C 47.0825,14.2216 46.4158,14.7216 45.5,15C 38.5544,16.3495 31.5544,17.1829 24.5,17.5C 31.9487,15.6465 39.6154,14.3132 47.5,13.5 Z"/></g>
<g><path style="opacity:1" fill="#79899f" d="M 82.5,18.5 C 81.9238,26.111 82.5905,33.4444 84.5,40.5C 83.5,40.5 82.5,40.5 81.5,40.5C 81.175,32.9809 81.5084,25.6476 82.5,18.5 Z"/></g>
<g><path style="opacity:1" fill="#fdfdfe" d="M 68.5,21.5 C 70.5,21.5 72.5,21.5 74.5,21.5C 74.5,48.8333 74.5,76.1667 74.5,103.5C 69.1667,103.5 63.8333,103.5 58.5,103.5C 58.5,97.8333 58.5,92.1667 58.5,86.5C 54.6286,86.185 50.9619,86.5184 47.5,87.5C 47.5,92.8333 47.5,98.1667 47.5,103.5C 41.8333,103.5 36.1667,103.5 30.5,103.5C 30.5,77.8333 30.5,52.1667 30.5,26.5C 43.2071,25.0961 55.8738,23.4295 68.5,21.5 Z"/></g>
<g><path style="opacity:1" fill="#bcc5cf" d="M 68.5,21.5 C 70.6074,20.5318 72.9407,20.1984 75.5,20.5C 75.5,48.5 75.5,76.5 75.5,104.5C 69.642,104.822 63.9753,104.489 58.5,103.5C 63.8333,103.5 69.1667,103.5 74.5,103.5C 74.5,76.1667 74.5,48.8333 74.5,21.5C 72.5,21.5 70.5,21.5 68.5,21.5 Z"/></g>
<g><path style="opacity:1" fill="#213c60" d="M 47.5,30.5 C 50.8333,30.5 54.1667,30.5 57.5,30.5C 57.5,33.5 57.5,36.5 57.5,39.5C 54.1667,39.5 50.8333,39.5 47.5,39.5C 47.5,36.5 47.5,33.5 47.5,30.5 Z"/></g>
<g><path style="opacity:1" fill="#8291a5" d="M 47.5,30.5 C 50.9619,29.5184 54.6286,29.185 58.5,29.5C 58.5,33.1667 58.5,36.8333 58.5,40.5C 54.6286,40.815 50.9619,40.4816 47.5,39.5C 50.8333,39.5 54.1667,39.5 57.5,39.5C 57.5,36.5 57.5,33.5 57.5,30.5C 54.1667,30.5 50.8333,30.5 47.5,30.5 Z"/></g>
<g><path style="opacity:1" fill="#243e62" d="M 57.5,48.5 C 57.5,51.8333 57.5,55.1667 57.5,58.5C 54.1667,58.5 50.8333,58.5 47.5,58.5C 47.5,55.1667 47.5,51.8333 47.5,48.5C 50.8333,48.5 54.1667,48.5 57.5,48.5 Z"/></g>
<g><path style="opacity:1" fill="#78889e" d="M 86.5,52.5 C 85.1667,52.5 83.8333,52.5 82.5,52.5C 82.5,69.5 82.5,86.5 82.5,103.5C 81.5033,86.3414 81.17,69.008 81.5,51.5C 83.4147,51.2155 85.0813,51.5489 86.5,52.5 Z"/></g>
<g><path style="opacity:1" fill="#fcfcfc" d="M 86.5,52.5 C 92.7948,53.9902 99.1282,55.3235 105.5,56.5C 105.5,72.1667 105.5,87.8333 105.5,103.5C 102.833,103.5 100.167,103.5 97.5,103.5C 97.5,100.833 97.5,98.1667 97.5,95.5C 95.1667,95.5 92.8333,95.5 90.5,95.5C 90.5,98.1667 90.5,100.833 90.5,103.5C 87.8333,103.5 85.1667,103.5 82.5,103.5C 82.5,86.5 82.5,69.5 82.5,52.5C 83.8333,52.5 85.1667,52.5 86.5,52.5 Z"/></g>
<g><path style="opacity:1" fill="#a7b1bf" d="M 57.5,48.5 C 58.4816,51.9619 58.815,55.6286 58.5,59.5C 54.6286,59.815 50.9619,59.4816 47.5,58.5C 50.8333,58.5 54.1667,58.5 57.5,58.5C 57.5,55.1667 57.5,51.8333 57.5,48.5 Z"/></g>
<g><path style="opacity:1" fill="#8a99ac" d="M 105.5,56.5 C 106.496,72.3246 106.83,88.3246 106.5,104.5C 103.287,104.81 100.287,104.477 97.5,103.5C 100.167,103.5 102.833,103.5 105.5,103.5C 105.5,87.8333 105.5,72.1667 105.5,56.5 Z"/></g>
<g><path style="opacity:1" fill="#6d7e96" d="M 96.5,66.5 C 96.5,64.8333 96.5,63.1667 96.5,61.5C 94.8333,61.5 93.1667,61.5 91.5,61.5C 91.5,63.1667 91.5,64.8333 91.5,66.5C 90.5386,64.7354 90.2053,62.7354 90.5,60.5C 92.8333,60.5 95.1667,60.5 97.5,60.5C 97.7947,62.7354 97.4614,64.7354 96.5,66.5 Z"/></g>
<g><path style="opacity:1" fill="#1e395e" d="M 96.5,66.5 C 94.8333,66.5 93.1667,66.5 91.5,66.5C 91.5,64.8333 91.5,63.1667 91.5,61.5C 93.1667,61.5 94.8333,61.5 96.5,61.5C 96.5,63.1667 96.5,64.8333 96.5,66.5 Z"/></g>
<g><path style="opacity:1" fill="#213c60" d="M 47.5,67.5 C 50.8333,67.5 54.1667,67.5 57.5,67.5C 57.5,70.5 57.5,73.5 57.5,76.5C 54.1667,76.5 50.8333,76.5 47.5,76.5C 47.5,73.5 47.5,70.5 47.5,67.5 Z"/></g>
<g><path style="opacity:1" fill="#7f8fa4" d="M 47.5,67.5 C 50.9619,66.5184 54.6286,66.185 58.5,66.5C 58.5,70.1667 58.5,73.8333 58.5,77.5C 54.6286,77.815 50.9619,77.4816 47.5,76.5C 50.8333,76.5 54.1667,76.5 57.5,76.5C 57.5,73.5 57.5,70.5 57.5,67.5C 54.1667,67.5 50.8333,67.5 47.5,67.5 Z"/></g>
<g><path style="opacity:1" fill="#6b7c95" d="M 96.5,77.5 C 96.5,75.8333 96.5,74.1667 96.5,72.5C 94.8333,72.5 93.1667,72.5 91.5,72.5C 91.5,74.1667 91.5,75.8333 91.5,77.5C 90.5386,75.7354 90.2053,73.7354 90.5,71.5C 92.8333,71.5 95.1667,71.5 97.5,71.5C 97.7947,73.7354 97.4614,75.7354 96.5,77.5 Z"/></g>
<g><path style="opacity:1" fill="#1e3a5e" d="M 96.5,77.5 C 94.8333,77.5 93.1667,77.5 91.5,77.5C 91.5,75.8333 91.5,74.1667 91.5,72.5C 93.1667,72.5 94.8333,72.5 96.5,72.5C 96.5,74.1667 96.5,75.8333 96.5,77.5 Z"/></g>
<g><path style="opacity:1" fill="#6b7c95" d="M 96.5,88.5 C 96.5,86.8333 96.5,85.1667 96.5,83.5C 94.8333,83.5 93.1667,83.5 91.5,83.5C 91.5,85.1667 91.5,86.8333 91.5,88.5C 90.5386,86.7354 90.2053,84.7354 90.5,82.5C 92.8333,82.5 95.1667,82.5 97.5,82.5C 97.7947,84.7354 97.4614,86.7354 96.5,88.5 Z"/></g>
<g><path style="opacity:1" fill="#1f3a5e" d="M 96.5,88.5 C 94.8333,88.5 93.1667,88.5 91.5,88.5C 91.5,86.8333 91.5,85.1667 91.5,83.5C 93.1667,83.5 94.8333,83.5 96.5,83.5C 96.5,85.1667 96.5,86.8333 96.5,88.5 Z"/></g>
<g><path style="opacity:1" fill="#8997aa" d="M 47.5,87.5 C 50.9619,86.5184 54.6286,86.185 58.5,86.5C 58.5,92.1667 58.5,97.8333 58.5,103.5C 57.5119,98.3595 57.1786,93.0262 57.5,87.5C 54.1667,87.5 50.8333,87.5 47.5,87.5 Z"/></g>
</svg>
