<?xml version="1.0" encoding="UTF-8"?>
<!DOCTYPE svg PUBLIC "-//W3C//DTD SVG 1.1//EN" "http://www.w3.org/Graphics/SVG/1.1/DTD/svg11.dtd">
<svg xmlns="http://www.w3.org/2000/svg" version="1.1" width="136px" height="141px" style="shape-rendering:geometricPrecision; text-rendering:geometricPrecision; image-rendering:optimizeQuality; fill-rule:evenodd; clip-rule:evenodd" xmlns:xlink="http://www.w3.org/1999/xlink">
<g><path style="opacity:1" fill="#ebebe6" d="M -0.5,0.5 C 44.8333,0.5 90.1667,0.5 135.5,0.5C 135.5,47.1667 135.5,93.8333 135.5,140.5C 90.1667,140.5 44.8333,140.5 -0.5,140.5C -0.5,93.8333 -0.5,47.1667 -0.5,0.5 Z"/></g>
<g><path style="opacity:1" fill="#253d65" d="M 76.5,9.5 C 83.8333,9.5 91.1667,9.5 98.5,9.5C 98.5,16.1667 98.5,22.8333 98.5,29.5C 92.9738,29.1786 87.6405,29.5119 82.5,30.5C 81.8826,30.6107 81.3826,30.944 81,31.5C 80.5006,37.1569 80.3339,42.8236 80.5,48.5C 86.7355,48.8526 92.7355,49.8526 98.5,51.5C 97.9258,57.4836 97.5925,63.4836 97.5,69.5C 91.8333,69.5 86.1667,69.5 80.5,69.5C 79.5029,89.3264 79.1695,109.326 79.5,129.5C 71.5,129.5 63.5,129.5 55.5,129.5C 55.5,109.5 55.5,89.5 55.5,69.5C 51.7016,68.5166 47.7016,68.1832 43.5,68.5C 43.5,62.1667 43.5,55.8333 43.5,49.5C 47.7016,49.8168 51.7016,49.4834 55.5,48.5C 55.3336,40.4931 55.5003,32.4931 56,24.5C 59.0387,14.2925 65.872,9.29251 76.5,9.5 Z"/></g>
<g><path style="opacity:1" fill="#5e708a" d="M 76.5,9.5 C 83.9818,8.50797 91.6484,8.17464 99.5,8.5C 99.5,15.8333 99.5,23.1667 99.5,30.5C 93.8333,30.5 88.1667,30.5 82.5,30.5C 87.6405,29.5119 92.9738,29.1786 98.5,29.5C 98.5,22.8333 98.5,16.1667 98.5,9.5C 91.1667,9.5 83.8333,9.5 76.5,9.5 Z"/></g>
<g><path style="opacity:1" fill="#556885" d="M 80.5,48.5 C 86.8333,48.5 93.1667,48.5 99.5,48.5C 99.7373,49.791 99.404,50.791 98.5,51.5C 92.7355,49.8526 86.7355,48.8526 80.5,48.5 Z"/></g>
<g><path style="opacity:1" fill="#465a7b" d="M 55.5,48.5 C 51.7016,49.4834 47.7016,49.8168 43.5,49.5C 43.5,55.8333 43.5,62.1667 43.5,68.5C 47.7016,68.1832 51.7016,68.5166 55.5,69.5C 51.1667,69.5 46.8333,69.5 42.5,69.5C 42.5,62.5 42.5,55.5 42.5,48.5C 46.8333,48.5 51.1667,48.5 55.5,48.5 Z"/></g>
<g><path style="opacity:1" fill="#60728b" d="M 80.5,69.5 C 80.5,89.8333 80.5,110.167 80.5,130.5C 72.1667,130.5 63.8333,130.5 55.5,130.5C 55.5,130.167 55.5,129.833 55.5,129.5C 63.5,129.5 71.5,129.5 79.5,129.5C 79.1695,109.326 79.5029,89.3264 80.5,69.5 Z"/></g>
<g><path style="opacity:1" fill="#d4d7d7" d="M 42.5,69.5 C 46.8333,69.5 51.1667,69.5 55.5,69.5C 55.5,89.5 55.5,109.5 55.5,129.5C 55.5,129.833 55.5,130.167 55.5,130.5C 54.5029,110.674 54.1695,90.6736 54.5,70.5C 50.2984,70.8168 46.2984,70.4834 42.5,69.5 Z"/></g>
</svg>
