<?xml version="1.0" encoding="UTF-8"?>
<!DOCTYPE svg PUBLIC "-//W3C//DTD SVG 1.1//EN" "http://www.w3.org/Graphics/SVG/1.1/DTD/svg11.dtd">
<svg xmlns="http://www.w3.org/2000/svg" version="1.1" width="134px" height="129px" style="shape-rendering:geometricPrecision; text-rendering:geometricPrecision; image-rendering:optimizeQuality; fill-rule:evenodd; clip-rule:evenodd" xmlns:xlink="http://www.w3.org/1999/xlink">
<g><path style="opacity:1" fill="#ebebe6" d="M -0.5,0.5 C 44.1667,0.5 88.8333,0.5 133.5,0.5C 133.5,43.1667 133.5,85.8333 133.5,128.5C 88.8333,128.5 44.1667,128.5 -0.5,128.5C -0.5,85.8333 -0.5,43.1667 -0.5,0.5 Z"/></g>
<g><path style="opacity:1" fill="#2c4269" d="M 46.5,18.5 C 60.504,18.3334 74.504,18.5001 88.5,19C 100.996,20.4969 108.83,27.3302 112,39.5C 112.667,53.8333 112.667,68.1667 112,82.5C 110.346,96.488 102.513,103.988 88.5,105C 73.8333,105.667 59.1667,105.667 44.5,105C 32.9362,101.431 26.4362,93.5977 25,81.5C 24.3333,67.5 24.3333,53.5 25,39.5C 28.1361,28.1953 35.3027,21.1953 46.5,18.5 Z"/></g>
<g><path style="opacity:1" fill="#e8e8e4" d="M 45.5,26.5 C 60.1705,26.3334 74.8371,26.5001 89.5,27C 96.8229,28.3256 101.656,32.4923 104,39.5C 104.667,53.8333 104.667,68.1667 104,82.5C 103.201,90.2776 99.0347,95.111 91.5,97C 75.8333,97.6667 60.1667,97.6667 44.5,97C 37.6916,94.5601 33.8582,89.7267 33,82.5C 32.3333,68.8333 32.3333,55.1667 33,41.5C 34.4684,34.2024 38.635,29.2024 45.5,26.5 Z"/></g>
<g><path style="opacity:1" fill="#33476d" d="M 89.5,33.5 C 96.7454,33.5552 98.7454,36.7218 95.5,43C 86.2187,44.2337 84.2187,41.067 89.5,33.5 Z"/></g>
<g><path style="opacity:1" fill="#2b4168" d="M 63.5,39.5 C 75.5154,38.9233 84.3487,43.9233 90,54.5C 92.5261,75.3057 83.3595,85.139 62.5,84C 47.6537,77.1465 43.1537,65.9798 49,50.5C 52.8568,45.4678 57.6901,41.8011 63.5,39.5 Z"/></g>
<g><path style="opacity:1" fill="#e7e8e4" d="M 64.5,47.5 C 73.3636,46.6802 79.5302,50.3468 83,58.5C 83.4632,72.0261 76.9632,77.8594 63.5,76C 49.9374,66.0799 50.2708,56.5799 64.5,47.5 Z"/></g>
</svg>
