<?xml version="1.0" encoding="UTF-8"?>
<!DOCTYPE svg PUBLIC "-//W3C//DTD SVG 1.1//EN" "http://www.w3.org/Graphics/SVG/1.1/DTD/svg11.dtd">
<svg xmlns="http://www.w3.org/2000/svg" version="1.1" width="1050px" height="402px" style="shape-rendering:geometricPrecision; text-rendering:geometricPrecision; image-rendering:optimizeQuality; fill-rule:evenodd; clip-rule:evenodd" xmlns:xlink="http://www.w3.org/1999/xlink">
<g><path style="opacity:1" fill="#eaeae6" d="M -0.5,-0.5 C 349.5,-0.5 699.5,-0.5 1049.5,-0.5C 1049.5,133.5 1049.5,267.5 1049.5,401.5C 699.5,401.5 349.5,401.5 -0.5,401.5C -0.5,267.5 -0.5,133.5 -0.5,-0.5 Z"/></g>
<g><path style="opacity:1" fill="#5d6d86" d="M 75.5,3.5 C 62.9887,3.17145 50.6554,3.50478 38.5,4.5C 37.9569,4.44001 37.6236,4.10667 37.5,3.5C 50.3271,2.17504 62.9938,2.17504 75.5,3.5 Z"/></g>
<g><path style="opacity:1" fill="#5c6c86" d="M 152.5,3.5 C 131.66,3.16945 110.993,3.50279 90.5,4.5C 89.7109,4.21719 89.0442,3.71719 88.5,3C 110.004,2.17059 131.337,2.33726 152.5,3.5 Z"/></g>
<g><path style="opacity:1" fill="#5b6b85" d="M 213.5,3.5 C 199.323,3.17085 185.323,3.50418 171.5,4.5C 170.711,4.21719 170.044,3.71719 169.5,3C 184.339,2.17238 199.006,2.33905 213.5,3.5 Z"/></g>
<g><path style="opacity:1" fill="#5c6c86" d="M 254.5,3.5 C 244.319,3.17265 234.319,3.50598 224.5,4.5C 223.957,4.44001 223.624,4.10667 223.5,3.5C 233.993,2.17682 244.326,2.17682 254.5,3.5 Z"/></g>
<g><path style="opacity:1" fill="#5d6d86" d="M 291.5,3.5 C 281.985,3.17311 272.652,3.50644 263.5,4.5C 262.957,4.44001 262.624,4.10667 262.5,3.5C 272.325,2.17747 281.992,2.17747 291.5,3.5 Z"/></g>
<g><path style="opacity:1" fill="#5a6a85" d="M 318.5,3.5 C 312.642,3.1778 306.975,3.51114 301.5,4.5C 300.957,4.44001 300.624,4.10667 300.5,3.5C 306.654,2.18341 312.654,2.18341 318.5,3.5 Z"/></g>
<g><path style="opacity:1" fill="#263e63" d="M 6.5,2.5 C 13.8409,2.33368 21.1742,2.50034 28.5,3C 34.6733,14.1738 42.6733,23.8404 52.5,32C 67.1583,41.5628 82.825,49.2295 99.5,55C 107.653,58.5738 115.32,62.9071 122.5,68C 129.074,73.9037 134.908,80.4037 140,87.5C 148.519,105.381 156.853,123.381 165,141.5C 172.5,154.333 182.667,164.5 195.5,172C 210.146,179.49 225.146,186.157 240.5,192C 260.624,202.46 274.791,218.293 283,239.5C 288.492,255.483 295.826,270.483 305,284.5C 309.123,289.113 313.456,293.446 318,297.5C 318.832,308.515 318.666,319.515 317.5,330.5C 296.077,320.91 280.91,305.243 272,283.5C 265.58,261.144 254.413,241.644 238.5,225C 233.833,221.667 229.167,218.333 224.5,215C 206.229,207.197 188.229,198.864 170.5,190C 159.575,182.41 150.742,172.91 144,161.5C 136.941,145.048 129.608,128.715 122,112.5C 113.784,98.6167 102.617,87.7834 88.5,80C 72.7152,73.2745 57.0485,66.2745 41.5,59C 25.7823,49.9489 14.2823,37.1155 7,20.5C 6.50051,14.5092 6.33385,8.50924 6.5,2.5 Z"/></g>
<g><path style="opacity:1" fill="#263e63" d="M 75.5,3.5 C 79.3431,6.50253 83.3431,9.33587 87.5,12C 102.833,19.7763 118.499,26.7763 134.5,33C 148.578,40.4466 159.744,50.9466 168,64.5C 174.445,77.1694 180.111,90.1694 185,103.5C 193.615,122.782 207.115,137.615 225.5,148C 241.167,155 256.833,162 272.5,169C 287.145,178.316 298.312,190.816 306,206.5C 310.195,216.086 314.195,225.752 318,235.5C 318.667,252.833 318.667,270.167 318,287.5C 312.569,282.072 307.902,276.072 304,269.5C 296.941,253.048 289.608,236.715 282,220.5C 274.547,208.046 264.713,197.88 252.5,190C 235.201,182.008 217.868,174.008 200.5,166C 188.715,159.215 179.215,150.048 172,138.5C 164.612,123 157.612,107.334 151,91.5C 142.935,76.101 131.435,63.9343 116.5,55C 103.082,48.4169 89.4154,42.4169 75.5,37C 59.5589,30.2226 47.2256,19.3893 38.5,4.5C 50.6554,3.50478 62.9887,3.17145 75.5,3.5 Z"/></g>
<g><path style="opacity:1" fill="#263e63" d="M 90.5,4.5 C 110.993,3.50279 131.66,3.16945 152.5,3.5C 176.551,13.0526 193.051,30.0526 202,54.5C 207.64,71.4477 215.64,87.1144 226,101.5C 232.337,109.178 239.837,115.345 248.5,120C 265.833,128 283.167,136 300.5,144C 306.979,147.998 312.812,152.832 318,158.5C 318.667,177.5 318.667,196.5 318,215.5C 308.534,187.701 290.367,167.867 263.5,156C 243.682,150.01 225.848,140.51 210,127.5C 204.939,122.373 200.606,116.707 197,110.5C 191.083,98.4138 185.749,86.0805 181,73.5C 173.41,55.1506 161.244,40.6506 144.5,30C 126.322,21.7429 108.322,13.2429 90.5,4.5 Z"/></g>
<g><path style="opacity:1" fill="#263e63" d="M 171.5,4.5 C 185.323,3.50418 199.323,3.17085 213.5,3.5C 216.521,6.3664 219.021,9.69973 221,13.5C 228.139,29.917 235.473,46.2504 243,62.5C 251.216,76.3833 262.383,87.2166 276.5,95C 290.184,101.559 304.017,107.726 318,113.5C 318.832,124.848 318.666,136.181 317.5,147.5C 303.118,136.14 287.118,127.64 269.5,122C 251.139,114.964 236.306,103.464 225,87.5C 218.568,75.9714 213.235,63.9714 209,51.5C 201.222,31.8784 188.722,16.2118 171.5,4.5 Z"/></g>
<g><path style="opacity:1" fill="#263e63" d="M 254.5,3.5 C 260.087,18.6745 267.254,33.0078 276,46.5C 287.745,59.7016 301.745,69.7016 318,76.5C 318.5,85.8274 318.666,95.1607 318.5,104.5C 300.235,98.9145 283.235,90.7479 267.5,80C 260.6,74.0036 254.767,67.1702 250,59.5C 242.017,40.8698 233.517,22.5365 224.5,4.5C 234.319,3.50598 244.319,3.17265 254.5,3.5 Z"/></g>
<g><path style="opacity:1" fill="#263e63" d="M 291.5,3.5 C 297.71,16.203 306.544,26.8696 318,35.5C 318.832,46.1823 318.666,56.8489 317.5,67.5C 298.418,60.0478 283.918,47.3811 274,29.5C 269.936,21.3754 266.436,13.0421 263.5,4.5C 272.652,3.50644 281.985,3.17311 291.5,3.5 Z"/></g>
<g><path style="opacity:1" fill="#263e63" d="M 318.5,3.5 C 318.666,10.8409 318.5,18.1742 318,25.5C 310.736,19.7528 305.236,12.7528 301.5,4.5C 306.975,3.51114 312.642,3.1778 318.5,3.5 Z"/></g>
<g><path style="opacity:1" fill="#c6cacc" d="M 7.5,36.5 C 6.50408,50.6569 6.17075,64.9903 6.5,79.5C 5.17394,64.9946 5.17394,50.3279 6.5,35.5C 7.10667,35.6236 7.44001,35.9569 7.5,36.5 Z"/></g>
<g><path style="opacity:1" fill="#263e63" d="M 7.5,36.5 C 17.9976,52.8179 32.331,64.6512 50.5,72C 67.7274,77.7302 83.7274,85.7302 98.5,96C 104.831,101.851 110.331,108.351 115,115.5C 122.915,131.582 130.249,147.916 137,164.5C 145.885,180.385 158.385,192.552 174.5,201C 190.334,207.612 206,214.612 221.5,222C 233.381,229.547 242.881,239.38 250,251.5C 255.779,262.838 260.779,274.505 265,286.5C 275.333,311.5 293,329.167 318,339.5C 318.832,348.851 318.665,358.184 317.5,367.5C 301.183,361.841 285.85,354.341 271.5,345C 264.926,339.096 259.092,332.596 254,325.5C 245.667,307.5 237.333,289.5 229,271.5C 220.455,258.621 209.621,248.121 196.5,240C 180.083,232.861 163.75,225.527 147.5,218C 136,210.5 126.5,201 119,189.5C 111.197,171.229 102.864,153.229 94,135.5C 86.1249,124.624 76.6249,115.458 65.5,108C 50.75,100.751 35.75,94.0842 20.5,88C 15.639,85.4067 10.9724,82.5733 6.5,79.5C 6.17075,64.9903 6.50408,50.6569 7.5,36.5 Z"/></g>
<g><path style="opacity:1" fill="#273e64" d="M 907.5,50.5 C 921.142,48.9961 934.142,51.1627 946.5,57C 970.08,74.2506 975.246,96.0839 962,122.5C 948.744,139.702 931.244,146.869 909.5,144C 879.822,136.303 866.656,117.136 870,86.5C 875.552,67.1605 888.052,55.1605 907.5,50.5 Z"/></g>
<g><path style="opacity:1" fill="#485c7a" d="M 613.5,52.5 C 636.327,51.5025 659.327,51.1692 682.5,51.5C 682.822,57.358 682.489,63.0247 681.5,68.5C 681.5,63.1667 681.5,57.8333 681.5,52.5C 658.833,52.5 636.167,52.5 613.5,52.5 Z"/></g>
<g><path style="opacity:1" fill="#253d63" d="M 464.5,52.5 C 488.249,56.0804 498.416,69.7471 495,93.5C 490.126,107.376 480.293,115.209 465.5,117C 456.506,117.5 447.506,117.666 438.5,117.5C 437.507,125.65 437.174,133.983 437.5,142.5C 430.833,142.5 424.167,142.5 417.5,142.5C 417.5,112.5 417.5,82.5 417.5,52.5C 433.167,52.5 448.833,52.5 464.5,52.5 Z"/></g>
<g><path style="opacity:1" fill="#283f65" d="M 571.5,105.5 C 572.497,88.0079 572.83,70.3412 572.5,52.5C 579.167,52.5 585.833,52.5 592.5,52.5C 592.667,71.5029 592.5,90.5029 592,109.5C 588.333,132.951 574.499,144.617 550.5,144.5C 526.827,143.996 513.327,131.996 510,108.5C 509.5,89.5029 509.333,70.5029 509.5,51.5C 516.833,51.5 524.167,51.5 531.5,51.5C 531.333,71.5028 531.5,91.5028 532,111.5C 533.297,118.798 537.464,123.631 544.5,126C 560.977,128.78 569.977,121.947 571.5,105.5 Z"/></g>
<g><path style="opacity:1" fill="#253d63" d="M 613.5,52.5 C 636.167,52.5 658.833,52.5 681.5,52.5C 681.5,57.8333 681.5,63.1667 681.5,68.5C 665.833,68.5 650.167,68.5 634.5,68.5C 634.5,75.1667 634.5,81.8333 634.5,88.5C 648.5,88.5 662.5,88.5 676.5,88.5C 676.5,93.8333 676.5,99.1667 676.5,104.5C 662.5,104.5 648.5,104.5 634.5,104.5C 634.5,111.5 634.5,118.5 634.5,125.5C 650.658,126.496 666.991,126.83 683.5,126.5C 683.5,131.833 683.5,137.167 683.5,142.5C 660.167,142.5 636.833,142.5 613.5,142.5C 613.5,112.5 613.5,82.5 613.5,52.5 Z"/></g>
<g><path style="opacity:1" fill="#263e63" d="M 780.5,141.5 C 773.687,142.491 766.687,142.825 759.5,142.5C 753.399,134.49 747.399,126.323 741.5,118C 735.175,117.5 728.842,117.334 722.5,117.5C 721.507,125.65 721.174,133.983 721.5,142.5C 714.833,142.5 708.167,142.5 701.5,142.5C 701.5,112.167 701.5,81.8333 701.5,51.5C 717.17,51.3334 732.837,51.5001 748.5,52C 778.436,59.1545 786.936,76.6545 774,104.5C 770.282,108.273 766.116,111.44 761.5,114C 768.054,123.047 774.387,132.214 780.5,141.5 Z"/></g>
<g><path style="opacity:1" fill="#263e63" d="M 864.5,68.5 C 854.833,68.5 845.167,68.5 835.5,68.5C 835.5,93.1667 835.5,117.833 835.5,142.5C 828.5,142.5 821.5,142.5 814.5,142.5C 814.5,117.833 814.5,93.1667 814.5,68.5C 804.833,68.5 795.167,68.5 785.5,68.5C 785.5,62.8333 785.5,57.1667 785.5,51.5C 811.833,51.5 838.167,51.5 864.5,51.5C 864.5,57.1667 864.5,62.8333 864.5,68.5 Z"/></g>
<g><path style="opacity:1" fill="#738196" d="M 464.5,52.5 C 448.833,52.5 433.167,52.5 417.5,52.5C 417.5,82.5 417.5,112.5 417.5,142.5C 424.167,142.5 430.833,142.5 437.5,142.5C 437.174,133.983 437.507,125.65 438.5,117.5C 438.5,126.167 438.5,134.833 438.5,143.5C 431.167,143.5 423.833,143.5 416.5,143.5C 416.5,112.833 416.5,82.1667 416.5,51.5C 432.675,51.1703 448.675,51.5036 464.5,52.5 Z"/></g>
<g><path style="opacity:1" fill="#586984" d="M 592.5,52.5 C 585.833,52.5 579.167,52.5 572.5,52.5C 572.83,70.3412 572.497,88.0079 571.5,105.5C 571.5,87.5 571.5,69.5 571.5,51.5C 578.687,51.1755 585.687,51.5088 592.5,52.5 Z"/></g>
<g><path style="opacity:1" fill="#eaeae5" d="M 910.5,68.5 C 936.852,66.353 949.019,78.353 947,104.5C 941.71,121.404 930.21,128.571 912.5,126C 895.802,120.125 888.635,108.292 891,90.5C 893.603,79.5763 900.103,72.2429 910.5,68.5 Z"/></g>
<g><path style="opacity:1" fill="#8f99a8" d="M 459.5,69.5 C 452.5,69.5 445.5,69.5 438.5,69.5C 438.5,79.8333 438.5,90.1667 438.5,100.5C 437.506,90.0131 437.172,79.3464 437.5,68.5C 445.019,68.175 452.352,68.5084 459.5,69.5 Z"/></g>
<g><path style="opacity:1" fill="#eaeae6" d="M 459.5,69.5 C 474.251,72.3351 478.418,80.6684 472,94.5C 469.374,97.2308 466.207,99.0642 462.5,100C 454.507,100.5 446.507,100.666 438.5,100.5C 438.5,90.1667 438.5,79.8333 438.5,69.5C 445.5,69.5 452.5,69.5 459.5,69.5 Z"/></g>
<g><path style="opacity:1" fill="#818d9f" d="M 743.5,69.5 C 736.5,69.5 729.5,69.5 722.5,69.5C 722.5,79.8333 722.5,90.1667 722.5,100.5C 721.506,90.0131 721.172,79.3464 721.5,68.5C 729.019,68.175 736.352,68.5084 743.5,69.5 Z"/></g>
<g><path style="opacity:1" fill="#ebebe6" d="M 743.5,69.5 C 758.238,72.3081 762.405,80.6414 756,94.5C 753.374,97.2308 750.207,99.0642 746.5,100C 738.507,100.5 730.507,100.666 722.5,100.5C 722.5,90.1667 722.5,79.8333 722.5,69.5C 729.5,69.5 736.5,69.5 743.5,69.5 Z"/></g>
<g><path style="opacity:1" fill="#c1c5c9" d="M 864.5,68.5 C 855.348,69.4936 846.015,69.8269 836.5,69.5C 836.831,94.0057 836.498,118.339 835.5,142.5C 835.5,117.833 835.5,93.1667 835.5,68.5C 845.167,68.5 854.833,68.5 864.5,68.5 Z"/></g>
<g><path style="opacity:1" fill="#263e63" d="M 6.5,88.5 C 10.1391,90.6552 13.8057,92.8218 17.5,95C 31.9996,100.945 46.3329,107.278 60.5,114C 73,121.167 82.8333,131 90,143.5C 96.159,155.484 101.492,167.817 106,180.5C 113.836,199.669 126.67,214.502 144.5,225C 157.169,231.445 170.169,237.111 183.5,242C 199.634,248.975 212.467,259.808 222,274.5C 230.333,292.5 238.667,310.5 247,328.5C 254.5,340 264,349.5 275.5,357C 289.046,364.295 303.046,370.628 317.5,376C 318.478,382.41 318.811,388.91 318.5,395.5C 309.418,395.914 300.418,395.414 291.5,394C 273.386,387.944 256.719,379.278 241.5,368C 235.572,362.076 230.406,355.576 226,348.5C 220.083,336.414 214.749,324.08 210,311.5C 202.41,293.151 190.244,278.651 173.5,268C 156.167,260 138.833,252 121.5,244C 110.049,237.549 100.882,228.716 94,217.5C 85.6667,199.5 77.3333,181.5 69,163.5C 60.7875,150.954 50.2875,140.787 37.5,133C 27.4946,128.079 17.3279,123.579 7,119.5C 6.50017,109.172 6.33351,98.8387 6.5,88.5 Z"/></g>
<g><path style="opacity:1" fill="#263e63" d="M 274.5,394.5 C 255.674,395.497 236.674,395.83 217.5,395.5C 211.073,389.986 205.573,383.653 201,376.5C 192.86,358.415 184.527,340.415 176,322.5C 167.737,309.57 156.904,299.403 143.5,292C 128.583,285.139 113.583,278.472 98.5,272C 84.7172,264.551 73.8838,254.051 66,240.5C 60.221,229.162 55.221,217.495 51,205.5C 42.5966,183.932 28.0966,167.932 7.5,157.5C 6.33444,147.517 6.16777,137.517 7,127.5C 19.9298,132.215 32.0965,138.381 43.5,146C 50.4066,152.236 56.5733,159.069 62,166.5C 70.3333,184.5 78.6667,202.5 87,220.5C 94.8333,232.333 104.667,242.167 116.5,250C 128.029,256.432 140.029,261.765 152.5,266C 171.552,273.055 186.386,285.222 197,302.5C 203.445,315.169 209.111,328.169 214,341.5C 226.25,368.253 246.417,385.919 274.5,394.5 Z"/></g>
<g><path style="opacity:1" fill="#919baa" d="M 634.5,125.5 C 651.167,125.5 667.833,125.5 684.5,125.5C 684.5,131.5 684.5,137.5 684.5,143.5C 660.661,143.831 636.994,143.498 613.5,142.5C 636.833,142.5 660.167,142.5 683.5,142.5C 683.5,137.167 683.5,131.833 683.5,126.5C 666.991,126.83 650.658,126.496 634.5,125.5 Z"/></g>
<g><path style="opacity:1" fill="#8c97a6" d="M 722.5,117.5 C 722.5,126.167 722.5,134.833 722.5,143.5C 715.313,143.825 708.313,143.491 701.5,142.5C 708.167,142.5 714.833,142.5 721.5,142.5C 721.174,133.983 721.507,125.65 722.5,117.5 Z"/></g>
<g><path style="opacity:1" fill="#949eac" d="M 780.5,141.5 C 781.043,141.56 781.376,141.893 781.5,142.5C 774.01,143.819 766.677,143.819 759.5,142.5C 766.687,142.825 773.687,142.491 780.5,141.5 Z"/></g>
<g><path style="opacity:1" fill="#294065" d="M 602.5,173.5 C 597.968,173.818 593.634,173.485 589.5,172.5C 593.996,167.836 598.33,163.002 602.5,158C 608.833,157.333 615.167,157.333 621.5,158C 614.978,163.031 608.644,168.197 602.5,173.5 Z"/></g>
<g><path style="opacity:1" fill="#263e63" d="M 205.5,394.5 C 194.346,395.495 183.012,395.828 171.5,395.5C 164.98,380.476 158.147,365.476 151,350.5C 142.398,335.897 130.564,324.731 115.5,317C 99.6663,310.388 83.9996,303.388 68.5,296C 52.4145,286.006 40.9145,272.172 34,254.5C 29.3895,242.669 24.3895,231.003 19,219.5C 15.7694,213.601 11.7694,208.268 7,203.5C 6.33333,190.833 6.33333,178.167 7,165.5C 23.6087,175.109 35.6087,188.776 43,206.5C 48.9116,223.929 56.9116,240.262 67,255.5C 74.5458,264.522 83.3792,272.022 93.5,278C 109.167,285 124.833,292 140.5,299C 154.383,307.216 165.217,318.383 173,332.5C 179.612,348.334 186.612,364 194,379.5C 197.358,384.89 201.191,389.89 205.5,394.5 Z"/></g>
<g><path style="opacity:1" fill="#768398" d="M 589.5,172.5 C 593.634,173.485 597.968,173.818 602.5,173.5C 597.985,174.812 593.318,174.812 588.5,173.5C 588.624,172.893 588.957,172.56 589.5,172.5 Z"/></g>
<g><path style="opacity:1" fill="#273f64" d="M 678.5,179.5 C 691.256,177.838 703.256,180.004 714.5,186C 717.463,187.961 720.129,190.294 722.5,193C 718.944,197.059 714.944,200.559 710.5,203.5C 702.174,196.168 692.507,193.668 681.5,196C 663.739,204.519 659.239,217.685 668,235.5C 678.134,246.991 690.301,249.658 704.5,243.5C 704.5,235.5 704.5,227.5 704.5,219.5C 710.167,219.5 715.833,219.5 721.5,219.5C 721.832,230.52 721.499,241.52 720.5,252.5C 705.91,261.276 690.243,263.776 673.5,260C 651.476,250.795 642.309,234.295 646,210.5C 651.193,194.138 662.026,183.805 678.5,179.5 Z"/></g>
<g><path style="opacity:1" fill="#536581" d="M 967.5,195.5 C 967.5,190.833 967.5,186.167 967.5,181.5C 947.833,181.5 928.167,181.5 908.5,181.5C 908.5,207.833 908.5,234.167 908.5,260.5C 907.502,234.005 907.169,207.339 907.5,180.5C 927.833,180.5 948.167,180.5 968.5,180.5C 968.821,185.695 968.487,190.695 967.5,195.5 Z"/></g>
<g><path style="opacity:1" fill="#273f64" d="M 1002.5,179.5 C 1015.71,178.4 1028.38,180.4 1040.5,185.5C 1040.83,185.833 1041.17,186.167 1041.5,186.5C 1039.23,190.634 1037.57,194.967 1036.5,199.5C 1031.43,198.31 1026.43,196.81 1021.5,195C 1016.17,194.333 1010.83,194.333 1005.5,195C 999.493,196.672 997.327,200.505 999,206.5C 1000.73,208.617 1002.9,210.117 1005.5,211C 1014.33,212.722 1023,215.055 1031.5,218C 1044.71,224.623 1048.21,234.79 1042,248.5C 1036.64,255.604 1029.47,259.771 1020.5,261C 1011.44,261.881 1002.44,261.548 993.5,260C 987.907,258.537 982.907,256.037 978.5,252.5C 980.464,248.246 982.131,243.912 983.5,239.5C 988.658,241.906 993.991,244.073 999.5,246C 1007.27,248.158 1014.94,247.825 1022.5,245C 1027.34,241.306 1027.67,237.306 1023.5,233C 1012.9,229.455 1002.23,226.122 991.5,223C 977.261,212.425 975.928,200.425 987.5,187C 992.324,183.921 997.324,181.421 1002.5,179.5 Z"/></g>
<g><path style="opacity:1" fill="#566883" d="M 434.5,260.5 C 434.5,234.167 434.5,207.833 434.5,181.5C 428.833,181.5 423.167,181.5 417.5,181.5C 417.5,207.833 417.5,234.167 417.5,260.5C 416.502,234.005 416.169,207.339 416.5,180.5C 422.833,180.5 429.167,180.5 435.5,180.5C 435.831,207.339 435.498,234.005 434.5,260.5 Z"/></g>
<g><path style="opacity:1" fill="#243c62" d="M 434.5,260.5 C 428.833,260.5 423.167,260.5 417.5,260.5C 417.5,234.167 417.5,207.833 417.5,181.5C 423.167,181.5 428.833,181.5 434.5,181.5C 434.5,207.833 434.5,234.167 434.5,260.5 Z"/></g>
<g><path style="opacity:1" fill="#263e63" d="M 527.5,260.5 C 527.667,244.83 527.5,229.163 527,213.5C 526.283,214.044 525.783,214.711 525.5,215.5C 518.093,227.307 510.926,239.307 504,251.5C 501,252.833 498,252.833 495,251.5C 487.822,239.805 480.656,228.139 473.5,216.5C 473.217,215.711 472.717,215.044 472,214.5C 471.5,229.83 471.333,245.163 471.5,260.5C 465.833,260.5 460.167,260.5 454.5,260.5C 454.5,233.833 454.5,207.167 454.5,180.5C 459.875,180.172 465.208,180.505 470.5,181.5C 480.167,197.5 489.833,213.5 499.5,229.5C 509.611,213.453 519.611,197.286 529.5,181C 534.489,180.501 539.489,180.334 544.5,180.5C 544.5,207.167 544.5,233.833 544.5,260.5C 538.833,260.5 533.167,260.5 527.5,260.5 Z"/></g>
<g><path style="opacity:1" fill="#273e64" d="M 588.5,180.5 C 594.868,180.17 601.202,180.504 607.5,181.5C 619.167,207.5 630.833,233.5 642.5,259.5C 636.167,260.833 629.833,260.833 623.5,259.5C 621.26,254.274 618.926,249.107 616.5,244C 603.838,243.5 591.171,243.333 578.5,243.5C 577.076,249.021 575.076,254.354 572.5,259.5C 566.167,260.833 559.833,260.833 553.5,259.5C 565.453,233.263 577.12,206.93 588.5,180.5 Z"/></g>
<g><path style="opacity:1" fill="#243c62" d="M 798.5,181.5 C 798.5,186.167 798.5,190.833 798.5,195.5C 784.833,195.5 771.167,195.5 757.5,195.5C 756.51,201.31 756.177,207.31 756.5,213.5C 768.833,213.5 781.167,213.5 793.5,213.5C 793.5,217.833 793.5,222.167 793.5,226.5C 781.167,226.5 768.833,226.5 756.5,226.5C 756.5,233.167 756.5,239.833 756.5,246.5C 771.167,246.5 785.833,246.5 800.5,246.5C 800.5,251.167 800.5,255.833 800.5,260.5C 780.167,260.5 759.833,260.5 739.5,260.5C 739.5,234.167 739.5,207.833 739.5,181.5C 759.167,181.5 778.833,181.5 798.5,181.5 Z"/></g>
<g><path style="opacity:1" fill="#263d63" d="M 815.5,180.5 C 820.511,180.334 825.511,180.501 830.5,181C 843.667,196.833 856.833,212.667 870,228.5C 870.5,212.503 870.667,196.503 870.5,180.5C 876.5,180.5 882.5,180.5 888.5,180.5C 888.5,207.167 888.5,233.833 888.5,260.5C 883.489,260.666 878.489,260.499 873.5,260C 860.333,244.167 847.167,228.333 834,212.5C 833.5,228.497 833.333,244.497 833.5,260.5C 827.5,260.5 821.5,260.5 815.5,260.5C 815.5,233.833 815.5,207.167 815.5,180.5 Z"/></g>
<g><path style="opacity:1" fill="#283f64" d="M 967.5,195.5 C 953.833,195.5 940.167,195.5 926.5,195.5C 926.5,201.167 926.5,206.833 926.5,212.5C 938.833,212.5 951.167,212.5 963.5,212.5C 963.5,217.5 963.5,222.5 963.5,227.5C 951.167,227.5 938.833,227.5 926.5,227.5C 926.5,233.5 926.5,239.5 926.5,245.5C 940.833,245.5 955.167,245.5 969.5,245.5C 969.5,250.5 969.5,255.5 969.5,260.5C 949.167,260.5 928.833,260.5 908.5,260.5C 908.5,234.167 908.5,207.833 908.5,181.5C 928.167,181.5 947.833,181.5 967.5,181.5C 967.5,186.167 967.5,190.833 967.5,195.5 Z"/></g>
<g><path style="opacity:1" fill="#394e70" d="M 798.5,181.5 C 778.833,181.5 759.167,181.5 739.5,181.5C 739.5,207.833 739.5,234.167 739.5,260.5C 738.502,234.005 738.169,207.339 738.5,180.5C 758.674,180.17 778.674,180.503 798.5,181.5 Z"/></g>
<g><path style="opacity:1" fill="#e5e6e2" d="M 597.5,199.5 C 602.058,208.958 606.391,218.625 610.5,228.5C 602.167,229.833 593.833,229.833 585.5,228.5C 589.507,218.804 593.507,209.138 597.5,199.5 Z"/></g>
<g><path style="opacity:1" fill="#758398" d="M 757.5,195.5 C 757.5,201.167 757.5,206.833 757.5,212.5C 769.833,212.5 782.167,212.5 794.5,212.5C 794.5,217.5 794.5,222.5 794.5,227.5C 782.167,227.5 769.833,227.5 757.5,227.5C 757.5,233.5 757.5,239.5 757.5,245.5C 772.01,245.171 786.343,245.504 800.5,246.5C 785.833,246.5 771.167,246.5 756.5,246.5C 756.5,239.833 756.5,233.167 756.5,226.5C 768.833,226.5 781.167,226.5 793.5,226.5C 793.5,222.167 793.5,217.833 793.5,213.5C 781.167,213.5 768.833,213.5 756.5,213.5C 756.177,207.31 756.51,201.31 757.5,195.5 Z"/></g>
<g><path style="opacity:1" fill="#c5c9cb" d="M 7.5,215.5 C 6.50279,235.993 6.16945,256.66 6.5,277.5C 5.17181,256.663 5.17181,235.663 6.5,214.5C 7.10667,214.624 7.44001,214.957 7.5,215.5 Z"/></g>
<g><path style="opacity:1" fill="#adb4bc" d="M 473.5,216.5 C 472.833,231.167 472.167,245.833 471.5,260.5C 471.333,245.163 471.5,229.83 472,214.5C 472.717,215.044 473.217,215.711 473.5,216.5 Z"/></g>
<g><path style="opacity:1" fill="#263e63" d="M 7.5,215.5 C 10.3214,220.473 13.1547,225.473 16,230.5C 21.5091,245.186 27.8425,259.519 35,273.5C 42.8798,285.713 53.0465,295.547 65.5,303C 79.5008,310.11 93.8341,316.444 108.5,322C 123.459,328.958 135.293,339.458 144,353.5C 150.861,367.054 157.028,380.887 162.5,395C 152.816,395.832 143.149,395.665 133.5,394.5C 125.604,373.2 111.937,356.7 92.5,345C 79.8306,338.555 66.8306,332.889 53.5,328C 31.0747,317.41 15.408,300.576 6.5,277.5C 6.16945,256.66 6.50279,235.993 7.5,215.5 Z"/></g>
<g><path style="opacity:1" fill="#b8bec4" d="M 527.5,260.5 C 526.833,245.5 526.167,230.5 525.5,215.5C 525.783,214.711 526.283,214.044 527,213.5C 527.5,229.163 527.667,244.83 527.5,260.5 Z"/></g>
<g><path style="opacity:1" fill="#7a879b" d="M 547.5,279.5 C 549.693,278.203 552.027,278.203 554.5,279.5C 554.376,280.107 554.043,280.44 553.5,280.5C 551.735,279.539 549.735,279.205 547.5,279.5 Z"/></g>
<g><path style="opacity:1" fill="#2b4166" d="M 547.5,279.5 C 549.735,279.205 551.735,279.539 553.5,280.5C 548.555,283.445 543.888,286.779 539.5,290.5C 537.901,290.768 536.568,290.434 535.5,289.5C 539.183,285.82 543.183,282.486 547.5,279.5 Z"/></g>
<g><path style="opacity:1" fill="#8c97a7" d="M 535.5,289.5 C 536.568,290.434 537.901,290.768 539.5,290.5C 537.965,291.788 536.299,291.788 534.5,290.5C 534.624,289.893 534.957,289.56 535.5,289.5 Z"/></g>
<g><path style="opacity:1" fill="#c4c9cc" d="M 7.5,296.5 C 6.50389,311.324 6.17056,326.324 6.5,341.5C 5.17364,326.328 5.17364,310.995 6.5,295.5C 7.10667,295.624 7.44001,295.957 7.5,296.5 Z"/></g>
<g><path style="opacity:1" fill="#68778f" d="M 515.5,297.5 C 531.325,296.504 547.325,296.17 563.5,296.5C 563.784,298.415 563.451,300.081 562.5,301.5C 562.5,300.167 562.5,298.833 562.5,297.5C 546.833,297.5 531.167,297.5 515.5,297.5 Z"/></g>
<g><path style="opacity:1" fill="#2a4065" d="M 485.5,297.5 C 486.833,297.5 488.167,297.5 489.5,297.5C 489.5,321.167 489.5,344.833 489.5,368.5C 488.167,368.5 486.833,368.5 485.5,368.5C 485.667,348.164 485.5,327.831 485,307.5C 484.283,308.044 483.783,308.711 483.5,309.5C 474.561,325.612 465.394,341.612 456,357.5C 454.062,358.86 452.396,358.527 451,356.5C 441.667,340.5 432.333,324.5 423,308.5C 422.5,328.497 422.333,348.497 422.5,368.5C 420.833,368.5 419.167,368.5 417.5,368.5C 417.5,344.5 417.5,320.5 417.5,296.5C 419.288,296.215 420.955,296.548 422.5,297.5C 432.748,315.664 443.248,333.664 454,351.5C 464.764,333.637 475.264,315.637 485.5,297.5 Z"/></g>
<g><path style="opacity:1" fill="#304569" d="M 616.5,297.5 C 636.837,299.837 648.17,311.17 650.5,331.5C 649.425,351.07 639.425,363.236 620.5,368C 608.505,368.5 596.505,368.667 584.5,368.5C 584.5,344.833 584.5,321.167 584.5,297.5C 595.167,297.5 605.833,297.5 616.5,297.5 Z"/></g>
<g><path style="opacity:1" fill="#2f4469" d="M 720.5,296.5 C 732.249,294.643 742.916,297.143 752.5,304C 753.869,306.239 753.369,308.073 751,309.5C 742.207,301.924 732.041,299.424 720.5,302C 697.619,311.629 691.452,327.795 702,350.5C 715.918,366.52 731.751,368.687 749.5,357C 754.657,357.127 755.324,358.793 751.5,362C 741.343,368.142 730.343,370.142 718.5,368C 701.526,362.021 692.526,350.021 691.5,332C 693.318,313.688 702.985,301.854 720.5,296.5 Z"/></g>
<g><path style="opacity:1" fill="#2e4368" d="M 854.5,296.5 C 863.928,295.56 872.928,297.06 881.5,301C 884.044,302.775 884.044,304.608 881.5,306.5C 870.849,300.896 859.849,300.062 848.5,304C 840.508,311.38 840.508,318.713 848.5,326C 856.994,329.167 865.661,331.834 874.5,334C 885.032,337.563 888.865,344.73 886,355.5C 882.861,362.665 877.361,366.832 869.5,368C 858.87,369.792 848.87,368.125 839.5,363C 837.673,362.101 836.34,360.767 835.5,359C 835.613,357.72 836.28,356.887 837.5,356.5C 850.129,365.689 863.462,366.856 877.5,360C 882.773,353.597 882.773,347.263 877.5,341C 868.379,337.385 859.046,334.385 849.5,332C 838.218,326.842 834.718,318.342 839,306.5C 842.9,300.98 848.067,297.647 854.5,296.5 Z"/></g>
<g><path style="opacity:1" fill="#2c4267" d="M 515.5,297.5 C 531.167,297.5 546.833,297.5 562.5,297.5C 562.5,298.833 562.5,300.167 562.5,301.5C 548.5,301.5 534.5,301.5 520.5,301.5C 520.5,310.833 520.5,320.167 520.5,329.5C 533.167,329.5 545.833,329.5 558.5,329.5C 558.5,331.167 558.5,332.833 558.5,334.5C 545.833,334.5 533.167,334.5 520.5,334.5C 520.5,344.167 520.5,353.833 520.5,363.5C 535.167,363.5 549.833,363.5 564.5,363.5C 564.5,365.167 564.5,366.833 564.5,368.5C 548.167,368.5 531.833,368.5 515.5,368.5C 515.5,344.833 515.5,321.167 515.5,297.5 Z"/></g>
<g><path style="opacity:1" fill="#758297" d="M 616.5,297.5 C 605.833,297.5 595.167,297.5 584.5,297.5C 584.5,321.167 584.5,344.833 584.5,368.5C 583.502,344.672 583.169,320.672 583.5,296.5C 594.679,296.172 605.679,296.505 616.5,297.5 Z"/></g>
<g><path style="opacity:1" fill="#2a4166" d="M 668.5,296.5 C 670.167,296.5 671.833,296.5 673.5,296.5C 673.5,320.5 673.5,344.5 673.5,368.5C 671.833,368.5 670.167,368.5 668.5,368.5C 668.5,344.5 668.5,320.5 668.5,296.5 Z"/></g>
<g><path style="opacity:1" fill="#2d4367" d="M 790.5,296.5 C 792.604,296.201 794.604,296.534 796.5,297.5C 807.563,321.036 818.229,344.702 828.5,368.5C 826.712,368.785 825.045,368.452 823.5,367.5C 820.4,361.359 817.4,355.192 814.5,349C 800.5,348.333 786.5,348.333 772.5,349C 769.538,355.092 766.705,361.258 764,367.5C 762.186,368.76 760.353,368.76 758.5,367.5C 769.453,343.93 780.119,320.264 790.5,296.5 Z"/></g>
<g><path style="opacity:1" fill="#263e63" d="M 7.5,296.5 C 17.1669,313.332 30.8335,325.832 48.5,334C 62.4154,339.417 76.0821,345.417 89.5,352C 106.181,362.353 118.181,376.687 125.5,395C 114.833,395.667 104.167,395.667 93.5,395C 83.5095,382.343 71.1762,372.676 56.5,366C 38.5771,360.205 21.9105,352.038 6.5,341.5C 6.17056,326.324 6.50389,311.324 7.5,296.5 Z"/></g>
<g><path style="opacity:1" fill="#ebebe6" d="M 589.5,301.5 C 599.506,301.334 609.506,301.5 619.5,302C 640.983,308.457 648.817,322.624 643,344.5C 638.543,354.828 630.71,360.994 619.5,363C 609.506,363.5 599.506,363.666 589.5,363.5C 589.5,342.833 589.5,322.167 589.5,301.5 Z"/></g>
<g><path style="opacity:1" fill="#e9e9e5" d="M 811.5,342.5 C 799.5,343.833 787.5,343.833 775.5,342.5C 781.229,329.376 787.229,316.376 793.5,303.5C 800.272,316.151 806.272,329.151 811.5,342.5 Z"/></g>
<g><path style="opacity:1" fill="#5a6b85" d="M 485.5,297.5 C 486.919,296.549 488.585,296.216 490.5,296.5C 490.831,320.672 490.498,344.672 489.5,368.5C 489.5,344.833 489.5,321.167 489.5,297.5C 488.167,297.5 486.833,297.5 485.5,297.5 Z"/></g>
<g><path style="opacity:1" fill="#aab1ba" d="M 485.5,368.5 C 484.833,348.833 484.167,329.167 483.5,309.5C 483.783,308.711 484.283,308.044 485,307.5C 485.5,327.831 485.667,348.164 485.5,368.5 Z"/></g>
<g><path style="opacity:1" fill="#768499" d="M 775.5,342.5 C 787.5,343.833 799.5,343.833 811.5,342.5C 812.043,342.56 812.376,342.893 812.5,343.5C 799.833,344.833 787.167,344.833 774.5,343.5C 774.624,342.893 774.957,342.56 775.5,342.5 Z"/></g>
<g><path style="opacity:1" fill="#c4c8cc" d="M 7.5,351.5 C 6.50577,361.653 6.17244,371.986 6.5,382.5C 5.17652,371.993 5.17652,361.326 6.5,350.5C 7.10667,350.624 7.44001,350.957 7.5,351.5 Z"/></g>
<g><path style="opacity:1" fill="#263d63" d="M 7.5,351.5 C 14.1522,355.829 21.1522,359.662 28.5,363C 44.5948,368.245 59.5948,375.578 73.5,385C 76.7025,388.371 80.0359,391.538 83.5,394.5C 68.3424,395.496 53.0091,395.83 37.5,395.5C 27.2772,390.888 16.9439,386.555 6.5,382.5C 6.17244,371.986 6.50577,361.653 7.5,351.5 Z"/></g>
<g><path style="opacity:1" fill="#afb6be" d="M 83.5,394.5 C 84.0431,394.56 84.3764,394.893 84.5,395.5C 68.6717,396.827 53.0051,396.827 37.5,395.5C 53.0091,395.83 68.3424,395.496 83.5,394.5 Z"/></g>
<g><path style="opacity:1" fill="#aeb5bd" d="M 205.5,394.5 C 206.043,394.56 206.376,394.893 206.5,395.5C 194.673,396.824 183.007,396.824 171.5,395.5C 183.012,395.828 194.346,395.495 205.5,394.5 Z"/></g>
<g><path style="opacity:1" fill="#afb5be" d="M 274.5,394.5 C 275.376,394.369 276.043,394.702 276.5,395.5C 256.671,396.828 237.004,396.828 217.5,395.5C 236.674,395.83 255.674,395.497 274.5,394.5 Z"/></g>
</svg>
