<?xml version="1.0" encoding="UTF-8"?>
<!DOCTYPE svg PUBLIC "-//W3C//DTD SVG 1.1//EN" "http://www.w3.org/Graphics/SVG/1.1/DTD/svg11.dtd">
<svg xmlns="http://www.w3.org/2000/svg" version="1.1" width="367px" height="221px" style="shape-rendering:geometricPrecision; text-rendering:geometricPrecision; image-rendering:optimizeQuality; fill-rule:evenodd; clip-rule:evenodd" xmlns:xlink="http://www.w3.org/1999/xlink">
<g><path style="opacity:0.953" fill="#24417a" d="M 248.5,9.5 C 270.479,9.30502 279.646,19.9717 276,41.5C 271.366,50.9929 263.7,55.9929 253,56.5C 235.33,54.8223 227.33,45.1556 229,27.5C 231.893,17.4353 238.393,11.4353 248.5,9.5 Z M 249.5,19.5 C 263.727,20.2057 268.561,27.2057 264,40.5C 256.631,48.3985 249.298,48.3985 242,40.5C 237.889,30.9937 240.389,23.9937 249.5,19.5 Z"/></g>
<g><path style="opacity:0.967" fill="#25417b" d="M 12.5,10.5 C 20.84,10.3336 29.1733,10.5003 37.5,11C 48.6943,13.8987 52.861,21.0654 50,32.5C 48.1923,36.9744 45.0257,40.141 40.5,42C 34.888,43.1314 29.2213,43.6314 23.5,43.5C 23.5,47.5 23.5,51.5 23.5,55.5C 19.8333,55.5 16.1667,55.5 12.5,55.5C 12.5,40.5 12.5,25.5 12.5,10.5 Z M 23.5,19.5 C 27.9362,19.2101 32.2695,19.7101 36.5,21C 40.6545,25.399 40.3211,29.399 35.5,33C 31.5138,33.4988 27.5138,33.6655 23.5,33.5C 23.5,28.8333 23.5,24.1667 23.5,19.5 Z"/></g>
<g><path style="opacity:0.92" fill="#24417a" d="M 106.5,10.5 C 117.833,10.5 129.167,10.5 140.5,10.5C 140.5,13.5 140.5,16.5 140.5,19.5C 132.833,19.5 125.167,19.5 117.5,19.5C 117.5,22.5 117.5,25.5 117.5,28.5C 124.167,28.5 130.833,28.5 137.5,28.5C 137.5,31.5 137.5,34.5 137.5,37.5C 130.833,37.5 124.167,37.5 117.5,37.5C 117.5,40.5 117.5,43.5 117.5,46.5C 125.167,46.5 132.833,46.5 140.5,46.5C 140.5,49.5 140.5,52.5 140.5,55.5C 129.167,55.5 117.833,55.5 106.5,55.5C 106.5,40.5 106.5,25.5 106.5,10.5 Z"/></g>
<g><path style="opacity:0.959" fill="#25417a" d="M 148.5,10.5 C 156.84,10.3336 165.173,10.5003 173.5,11C 186.703,15.2598 190.203,23.7598 184,36.5C 182.457,38.3783 180.624,39.8783 178.5,41C 181.696,45.364 184.696,49.864 187.5,54.5C 183.5,55.8333 179.5,55.8333 175.5,54.5C 173.167,51.1667 170.833,47.8333 168.5,44.5C 165.572,43.5159 162.572,43.1826 159.5,43.5C 159.5,47.5 159.5,51.5 159.5,55.5C 155.833,55.5 152.167,55.5 148.5,55.5C 148.5,40.5 148.5,25.5 148.5,10.5 Z M 159.5,19.5 C 163.936,19.2101 168.27,19.7101 172.5,21C 176.105,24.3153 176.439,27.982 173.5,32C 169.049,33.9736 164.382,34.807 159.5,34.5C 159.5,29.5 159.5,24.5 159.5,19.5 Z"/></g>
<g><path style="opacity:0.912" fill="#25417b" d="M 188.5,10.5 C 201.5,10.5 214.5,10.5 227.5,10.5C 227.5,13.5 227.5,16.5 227.5,19.5C 222.833,19.5 218.167,19.5 213.5,19.5C 213.5,31.5 213.5,43.5 213.5,55.5C 209.833,55.5 206.167,55.5 202.5,55.5C 202.5,43.5 202.5,31.5 202.5,19.5C 197.833,19.5 193.167,19.5 188.5,19.5C 188.5,16.5 188.5,13.5 188.5,10.5 Z"/></g>
<g><path style="opacity:0.973" fill="#25417a" d="M 56.5,10.5 C 60.1667,10.5 63.8333,10.5 67.5,10.5C 67.3335,19.8393 67.5002,29.1726 68,38.5C 70.3729,45.855 75.2062,48.0216 82.5,45C 83.7014,44.0975 84.5348,42.9308 85,41.5C 86.3991,31.2317 86.8991,20.8983 86.5,10.5C 90.1667,10.5 93.8333,10.5 97.5,10.5C 97.6665,19.8393 97.4998,29.1726 97,38.5C 95.3466,50.3165 88.5133,56.3165 76.5,56.5C 67.7538,56.3823 61.5872,52.3823 58,44.5C 56.5907,33.2298 56.0907,21.8965 56.5,10.5 Z"/></g>
<g><path style="opacity:0.934" fill="#25407a" d="M 153.5,66.5 C 158.844,66.334 164.177,66.5006 169.5,67C 173.701,68.2167 177.034,70.55 179.5,74C 178,76.8333 175.833,79 173,80.5C 164.994,73.5585 157.327,73.8918 150,81.5C 146.357,89.1009 147.857,95.6009 154.5,101C 167.05,105.877 171.716,101.711 168.5,88.5C 172.167,88.5 175.833,88.5 179.5,88.5C 179.666,94.5092 179.499,100.509 179,106.5C 167.613,114.209 156.113,114.376 144.5,107C 134.926,96.499 134.093,85.3324 142,73.5C 145.514,70.4999 149.347,68.1666 153.5,66.5 Z"/></g>
<g><path style="opacity:0.926" fill="#24417b" d="M 187.5,66.5 C 198.833,66.5 210.167,66.5 221.5,66.5C 221.5,69.5 221.5,72.5 221.5,75.5C 213.833,75.5 206.167,75.5 198.5,75.5C 198.5,78.5 198.5,81.5 198.5,84.5C 205.167,84.5 211.833,84.5 218.5,84.5C 218.5,87.5 218.5,90.5 218.5,93.5C 211.833,93.5 205.167,93.5 198.5,93.5C 198.5,96.5 198.5,99.5 198.5,102.5C 206.5,102.5 214.5,102.5 222.5,102.5C 222.5,105.5 222.5,108.5 222.5,111.5C 210.833,111.5 199.167,111.5 187.5,111.5C 187.5,96.5 187.5,81.5 187.5,66.5 Z"/></g>
<g><path style="opacity:0.941" fill="#24417b" d="M 229.5,66.5 C 232.518,66.3354 235.518,66.502 238.5,67C 245.333,75.1667 252.167,83.3333 259,91.5C 259.5,83.1733 259.666,74.84 259.5,66.5C 263.167,66.5 266.833,66.5 270.5,66.5C 270.5,81.5 270.5,96.5 270.5,111.5C 267.15,111.665 263.817,111.498 260.5,111C 253.88,102.924 247.38,94.7578 241,86.5C 240.5,94.8267 240.334,103.16 240.5,111.5C 236.833,111.5 233.167,111.5 229.5,111.5C 229.5,96.5 229.5,81.5 229.5,66.5 Z"/></g>
<g><path style="opacity:0.943" fill="#25407a" d="M 330.5,66.5 C 335.844,66.334 341.177,66.5006 346.5,67C 354.813,68.6964 355.813,72.5297 349.5,78.5C 344.477,75.7637 339.144,74.9304 333.5,76C 330.527,77.2242 329.86,79.2242 331.5,82C 336.728,83.9743 342.062,85.6409 347.5,87C 355.94,91.4535 357.774,97.9535 353,106.5C 341.99,114.144 330.656,114.477 319,107.5C 319.007,104.137 320.173,101.137 322.5,98.5C 328.647,102.873 335.314,104.04 342.5,102C 345.167,100 345.167,98 342.5,96C 336.788,94.4886 331.121,92.822 325.5,91C 318.873,85.6933 317.706,79.1933 322,71.5C 324.682,69.415 327.516,67.7483 330.5,66.5 Z"/></g>
<g><path style="opacity:0.913" fill="#24407b" d="M 12.5,66.5 C 16.1667,66.5 19.8333,66.5 23.5,66.5C 23.5,81.5 23.5,96.5 23.5,111.5C 19.8333,111.5 16.1667,111.5 12.5,111.5C 12.5,96.5 12.5,81.5 12.5,66.5 Z"/></g>
<g><path style="opacity:0.945" fill="#25417a" d="M 32.5,66.5 C 35.8984,66.1796 39.2317,66.513 42.5,67.5C 47.1656,76.1687 52.3322,84.5021 58,92.5C 63.2516,84.3324 68.2516,75.9991 73,67.5C 76.0567,66.5495 79.2234,66.2161 82.5,66.5C 82.5,81.5 82.5,96.5 82.5,111.5C 79.1667,111.5 75.8333,111.5 72.5,111.5C 72.6664,103.493 72.4997,95.4931 72,87.5C 68.4145,93.0021 65.0812,98.6688 62,104.5C 59.5823,106.68 56.9156,107.013 54,105.5C 50.4145,99.9979 47.0812,94.3312 44,88.5C 43.5003,96.1594 43.3336,103.826 43.5,111.5C 39.8333,111.5 36.1667,111.5 32.5,111.5C 32.5,96.5 32.5,81.5 32.5,66.5 Z"/></g>
<g><path style="opacity:0.942" fill="#25407a" d="M 105.5,66.5 C 109.437,66.2065 113.27,66.5399 117,67.5C 123.5,81.8333 130,96.1667 136.5,110.5C 132.5,111.833 128.5,111.833 124.5,110.5C 123.086,103.582 118.753,100.916 111.5,102.5C 103.147,100.071 98.8132,103.071 98.5,111.5C 94.4454,111.824 90.4454,111.491 86.5,110.5C 93.4023,96.034 99.7356,81.3673 105.5,66.5 Z M 110.5,79.5 C 113.187,83.703 115.52,88.203 117.5,93C 113.459,93.8265 109.459,93.6599 105.5,92.5C 107.766,88.366 109.432,84.0327 110.5,79.5 Z"/></g>
<g><path style="opacity:0.915" fill="#24417b" d="M 279.5,66.5 C 290.833,66.5 302.167,66.5 313.5,66.5C 313.5,69.5 313.5,72.5 313.5,75.5C 305.833,75.5 298.167,75.5 290.5,75.5C 290.5,78.5 290.5,81.5 290.5,84.5C 297.5,84.5 304.5,84.5 311.5,84.5C 311.5,87.5 311.5,90.5 311.5,93.5C 304.5,93.5 297.5,93.5 290.5,93.5C 290.5,96.5 290.5,99.5 290.5,102.5C 298.5,102.5 306.5,102.5 314.5,102.5C 314.5,105.5 314.5,108.5 314.5,111.5C 302.833,111.5 291.167,111.5 279.5,111.5C 279.5,96.5 279.5,81.5 279.5,66.5 Z"/></g>
<g><path style="opacity:0.64" fill="#757373" d="M 70.5,120.5 C 72.5273,120.338 74.5273,120.505 76.5,121C 74.1667,122.667 71.8333,124.333 69.5,126C 68.0563,126.781 66.723,126.614 65.5,125.5C 67.5212,124.145 69.1879,122.479 70.5,120.5 Z"/></g>
<g><path style="opacity:0.758" fill="#797777" d="M 12.5,128.5 C 13.8221,128.33 14.9887,128.663 16,129.5C 20.2634,137.036 24.7634,144.37 29.5,151.5C 34.2366,144.37 38.7366,137.036 43,129.5C 44.0113,128.663 45.1779,128.33 46.5,128.5C 46.5,139.5 46.5,150.5 46.5,161.5C 45.5,161.5 44.5,161.5 43.5,161.5C 43.6664,152.827 43.4998,144.16 43,135.5C 39.2383,143.371 34.7383,150.704 29.5,157.5C 28.5224,157.023 27.6891,156.357 27,155.5C 23.5859,149.003 19.9192,142.67 16,136.5C 15.5003,144.827 15.3336,153.16 15.5,161.5C 14.5,161.5 13.5,161.5 12.5,161.5C 12.5,150.5 12.5,139.5 12.5,128.5 Z"/></g>
<g><path style="opacity:0.79" fill="#7a7878" d="M 56.5,128.5 C 64.1667,128.5 71.8333,128.5 79.5,128.5C 79.5,129.5 79.5,130.5 79.5,131.5C 73.1667,131.5 66.8333,131.5 60.5,131.5C 60.5,135.5 60.5,139.5 60.5,143.5C 66.1667,143.5 71.8333,143.5 77.5,143.5C 77.5,144.5 77.5,145.5 77.5,146.5C 71.8333,146.5 66.1667,146.5 60.5,146.5C 60.5,150.5 60.5,154.5 60.5,158.5C 67.1667,158.5 73.8333,158.5 80.5,158.5C 80.5,159.5 80.5,160.5 80.5,161.5C 72.5,161.5 64.5,161.5 56.5,161.5C 56.5,150.5 56.5,139.5 56.5,128.5 Z"/></g>
<g><path style="opacity:0.774" fill="#7a7878" d="M 88.5,128.5 C 94.8421,128.334 101.175,128.5 107.5,129C 118.322,133.443 121.822,141.276 118,152.5C 115.778,156.388 112.612,159.221 108.5,161C 101.842,161.5 95.175,161.666 88.5,161.5C 88.5,150.5 88.5,139.5 88.5,128.5 Z M 91.5,131.5 C 98.0614,130.919 104.395,131.752 110.5,134C 118.5,141.333 118.5,148.667 110.5,156C 109.167,156.667 107.833,157.333 106.5,158C 101.511,158.499 96.5111,158.666 91.5,158.5C 91.5,149.5 91.5,140.5 91.5,131.5 Z"/></g>
<g><path style="opacity:0.596" fill="#7a7979" d="M 126.5,128.5 C 127.833,128.5 129.167,128.5 130.5,128.5C 130.5,139.5 130.5,150.5 130.5,161.5C 129.167,161.5 127.833,161.5 126.5,161.5C 126.5,150.5 126.5,139.5 126.5,128.5 Z"/></g>
<g><path style="opacity:0.745" fill="#787676" d="M 148.5,128.5 C 152.846,128.334 157.179,128.501 161.5,129C 163.813,129.641 165.48,130.974 166.5,133C 166.37,134.059 165.87,134.892 165,135.5C 157.107,129.71 149.773,130.377 143,137.5C 138.917,146.254 141.084,153.087 149.5,158C 153.167,158.667 156.833,158.667 160.5,158C 162.217,156.441 164.217,155.608 166.5,155.5C 166.67,156.822 166.337,157.989 165.5,159C 153.398,165.188 144.232,162.355 138,150.5C 135.928,140.316 139.428,132.983 148.5,128.5 Z"/></g>
<g><path style="opacity:0.733" fill="#787676" d="M 182.5,128.5 C 183.978,128.238 185.311,128.571 186.5,129.5C 191.735,139.965 196.402,150.631 200.5,161.5C 199.178,161.67 198.011,161.337 197,160.5C 195.833,158.167 194.667,155.833 193.5,153.5C 187.528,152.336 181.528,152.17 175.5,153C 174.039,155.421 172.706,157.921 171.5,160.5C 170.277,161.614 168.944,161.781 167.5,161C 172.406,150.112 177.406,139.279 182.5,128.5 Z M 183.5,133.5 C 186.524,138.179 189.191,143.179 191.5,148.5C 186.533,149.662 181.533,149.829 176.5,149C 179.522,144.124 181.856,138.957 183.5,133.5 Z"/></g>
<g><path style="opacity:0.739" fill="#787777" d="M 209.5,128.5 C 214.866,128.042 220.033,128.709 225,130.5C 225.483,131.448 225.649,132.448 225.5,133.5C 220.663,131.683 215.663,131.183 210.5,132C 208.787,133.378 207.453,135.045 206.5,137C 207.453,138.955 208.787,140.622 210.5,142C 214.88,143.178 219.213,144.512 223.5,146C 229.205,151.814 228.538,156.814 221.5,161C 214.519,163.237 208.186,162.07 202.5,157.5C 202.709,156.914 203.043,156.414 203.5,156C 207.185,157.236 211.018,158.403 215,159.5C 219.625,159.529 222.459,157.362 223.5,153C 223.561,151.289 222.894,149.956 221.5,149C 217.224,147.514 212.891,146.181 208.5,145C 204.139,142.774 202.639,139.274 204,134.5C 205.021,131.65 206.854,129.65 209.5,128.5 Z"/></g>
<g><path style="opacity:0.754" fill="#a6a5a5" d="M 12.5,177.5 C 15.1873,177.336 17.854,177.503 20.5,178C 17.8039,183.098 15.3039,188.264 13,193.5C 12.5006,188.177 12.334,182.844 12.5,177.5 Z"/></g>
<g><path style="opacity:0.907" fill="#a7a5a6" d="M 23.5,177.5 C 31.1739,177.334 38.8406,177.5 46.5,178C 37.3288,186.665 30.6621,196.999 26.5,209C 21.8452,209.499 17.1785,209.666 12.5,209.5C 12.3359,206.813 12.5026,204.146 13,201.5C 16.2544,193.331 19.7544,185.331 23.5,177.5 Z"/></g>
<g><path style="opacity:0.914" fill="#a7a5a6" d="M 51.5,177.5 C 64.1711,177.333 76.8377,177.5 89.5,178C 80.3276,181.948 71.3276,186.281 62.5,191C 55.981,195.542 50.981,201.376 47.5,208.5C 41.8722,209.495 36.2055,209.829 30.5,209.5C 33.539,196.147 40.539,185.48 51.5,177.5 Z"/></g>
<g><path style="opacity:0.924" fill="#a7a5a6" d="M 95.5,177.5 C 103.84,177.334 112.173,177.5 120.5,178C 114.689,185.579 107.356,191.246 98.5,195C 88.5574,197.972 79.5574,202.638 71.5,209C 49.3518,213.593 46.0184,208.926 61.5,195C 72.7696,188.868 84.1029,183.034 95.5,177.5 Z"/></g>
<g><path style="opacity:0.906" fill="#a6a4a5" d="M 123.5,177.5 C 129.537,177.171 135.537,177.504 141.5,178.5C 136.456,193.045 126.789,203.211 112.5,209C 100.819,209.833 89.1524,209.666 77.5,208.5C 89.8781,202.095 102.211,195.595 114.5,189C 118.503,185.845 121.503,182.012 123.5,177.5 Z"/></g>
<g><path style="opacity:0.898" fill="#a7a5a6" d="M 144.5,177.5 C 150.167,177.5 155.833,177.5 161.5,177.5C 158.129,188.78 153.129,199.28 146.5,209C 137.814,209.832 129.147,209.665 120.5,208.5C 132.587,201.324 140.587,190.991 144.5,177.5 Z"/></g>
<g><path style="opacity:0.904" fill="#a7a5a6" d="M 165.5,177.5 C 172.532,177.17 179.532,177.503 186.5,178.5C 178.331,187.331 172.331,197.497 168.5,209C 162.472,209.83 156.472,209.664 150.5,208.5C 156.07,198.466 161.07,188.133 165.5,177.5 Z"/></g>
<g><path style="opacity:0.91" fill="#a7a5a6" d="M 192.5,177.5 C 204.505,177.333 216.505,177.5 228.5,178C 219.091,181.871 210.091,186.538 201.5,192C 196.4,197.097 192.067,202.764 188.5,209C 183.177,209.499 177.844,209.666 172.5,209.5C 175.543,196.479 182.21,185.813 192.5,177.5 Z"/></g>
<g><path style="opacity:0.924" fill="#a6a4a5" d="M 235.5,177.5 C 244.192,177.169 252.859,177.502 261.5,178.5C 258.647,182.187 255.314,185.353 251.5,188C 241.5,192.667 231.5,197.333 221.5,202C 213.284,209.498 203.617,211.665 192.5,208.5C 195.874,201.291 200.874,195.458 207.5,191C 217.047,186.725 226.38,182.225 235.5,177.5 Z"/></g>
<g><path style="opacity:0.909" fill="#a7a5a6" d="M 265.5,177.5 C 271.537,177.171 277.537,177.504 283.5,178.5C 277.543,193.624 266.877,203.79 251.5,209C 240.167,209.667 228.833,209.667 217.5,209C 219.208,206.957 221.208,205.29 223.5,204C 233.705,199.713 243.705,195.046 253.5,190C 258.377,186.624 262.377,182.457 265.5,177.5 Z"/></g>
<g><path style="opacity:0.908" fill="#a7a5a6" d="M 286.5,177.5 C 292.206,177.171 297.872,177.505 303.5,178.5C 300.003,187.831 295.836,196.831 291,205.5C 289.833,206.667 288.667,207.833 287.5,209C 278.482,209.832 269.482,209.665 260.5,208.5C 273.547,201.79 282.214,191.457 286.5,177.5 Z"/></g>
<g><path style="opacity:0.906" fill="#a7a5a6" d="M 306.5,177.5 C 313.532,177.17 320.532,177.503 327.5,178.5C 320.157,187.681 314.49,197.848 310.5,209C 304.472,209.83 298.472,209.664 292.5,208.5C 298.331,198.668 302.997,188.335 306.5,177.5 Z"/></g>
<g><path style="opacity:0.915" fill="#a6a5a5" d="M 332.5,177.5 C 339.5,177.5 346.5,177.5 353.5,177.5C 353.663,179.857 353.497,182.19 353,184.5C 342.723,190.111 335.223,198.278 330.5,209C 325.177,209.499 319.844,209.666 314.5,209.5C 317.402,197.024 323.402,186.357 332.5,177.5 Z"/></g>
<g><path style="opacity:0.885" fill="#a6a4a5" d="M 352.5,187.5 C 353.492,194.648 353.825,201.981 353.5,209.5C 347.167,209.5 340.833,209.5 334.5,209.5C 337.912,200.084 343.912,192.751 352.5,187.5 Z"/></g>
</svg>
