<svg xmlns="http://www.w3.org/2000/svg" width="1040" height="166" style="shape-rendering:geometricPrecision;text-rendering:geometricPrecision;image-rendering:optimizeQuality;fill-rule:evenodd;clip-rule:evenodd"><path style="opacity:1" fill="#fcfdfd" d="M-.5-.5h1040v166H-.5V-.5z"/><path style="opacity:1" fill="#b9c0cd" d="M332.5 16.5c7.148-.992 14.481-1.325 22-1v-13h-61v13c7.519-.325 14.852.008 22 1h-23v-15h63v15h-23z"/><path style="opacity:1" fill="#273f66" d="M388.5 1.5c21.846-3 37.346 5.334 46.5 25 4.328 29.834-8.505 45.834-38.5 48-16.775.026-28.608-7.64-35.5-23-6.717-25.575 2.45-42.242 27.5-50z"/><path style="opacity:1" fill="#273e66" d="M729.5 57.5c.991-6.479 1.324-13.146 1-20h14v29c-11.985 7.43-24.985 9.93-39 7.5-21.779-7.372-30.946-22.539-27.5-45.5 6.194-17.686 18.694-26.686 37.5-27 12.044-.879 22.044 3.121 30 12a36.362 36.362 0 0 1-9 8.5c-4.039-2.18-8.373-4.18-13-6-19.814-2.845-29.647 5.655-29.5 25.5 3.999 15.93 14.166 22.096 30.5 18.5a38.715 38.715 0 0 0 5-2.5z"/><path style="opacity:1" fill="#b8bfcc" d="M760.5 2.5a729.604 729.604 0 0 1 54-1c.319 4.863-.014 9.53-1 14v-13h-53z"/><path style="opacity:1" fill="#273f66" d="M993.5 1.5c10.9-.756 21.57.41 32 3.5 1.72.523 3.06 1.523 4 3a251.397 251.397 0 0 0-5 11.5c-8.53-4.273-17.53-5.773-27-4.5-6.095 2.509-7.429 6.509-4 12 10.71 3.542 21.37 7.208 32 11 7.58 7.295 9.08 15.795 4.5 25.5-4.36 5.93-10.19 9.43-17.5 10.5-11.73 1.622-23.065.288-34-4a26.078 26.078 0 0 1-5-3.5 136.206 136.206 0 0 1 6-12c10.109 6.989 21.11 8.822 33 5.5 4.8-3.307 5.13-6.974 1-11a257.508 257.508 0 0 1-30-10c-8.36-7.425-10.193-16.258-5.5-26.5 4.089-5.285 9.256-8.952 15.5-11z"/><path style="opacity:1" fill="#263e65" d="M175.5 15.5c-.988 5.14-1.321 10.474-1 16h33v12h-33c-.322 5.858.011 11.525 1 17h38v13h-55v-71h54v13h-37z"/><path style="opacity:1" fill="#263d65" d="M474.5 2.5h16v71h-16v-71z"/><path style="opacity:1" fill="#273e66" d="M674.5 72.5c-5.475.989-11.142 1.322-17 1a78.025 78.025 0 0 0-6-14.5c-11-.667-22-.667-33 0a113.786 113.786 0 0 0-6 13.5c-5.667 1.333-11.333 1.333-17 0a4514.216 4514.216 0 0 0 31-69c5.888-1.307 11.721-1.307 17.5 0 10.179 23.021 20.345 46.022 30.5 69z"/><path style="opacity:1" fill="#253d65" d="M760.5 2.5h53v13h-37v16h33v12h-33v17h39v13h-55v-71z"/><path style="opacity:1" fill="#263d65" d="M876.5 44.5c.06.543.393.876 1 1a463.088 463.088 0 0 0 1-43h15v71a49.874 49.874 0 0 1-14-1 34619.174 34619.174 0 0 1-33-40c-.283-.79-.783-1.456-1.5-2-.5 14.33-.667 28.663-.5 43h-16v-71c4.679-.166 9.345 0 14 .5a3491.076 3491.076 0 0 1 34 41.5z"/><path style="opacity:1" fill="#536686" d="M878.5 2.5a463.088 463.088 0 0 1-1 43c-.607-.124-.94-.457-1-1l2-42z"/><path style="opacity:1" fill="#243c64" d="M911.5 2.5h53v13h-37c-.988 5.14-1.321 10.474-1 16h34v12h-34c-.322 5.858.011 11.525 1 17h38v13h-54v-71z"/><path style="opacity:1" fill="#253d65" d="M5.5 2.5c12.671-.167 25.338 0 38 .5C63.296 7.082 70.463 18.915 65 38.5 60.958 46.608 54.458 51.44 45.5 53c-7.993.5-15.993.666-24 .5v20h-16v-71z"/><path style="opacity:1" fill="#283f67" d="M77.5 2.5h17c-.44 16.39.06 32.724 1.5 49 2.311 6.642 6.978 9.642 14 9 9.662.341 14.995-4.326 16-14 .5-14.663.667-29.33.5-44h16c.167 15.337 0 30.67-.5 46-3.21 18.038-14.043 26.705-32.5 26-18.207-.019-28.707-9.019-31.5-27a1012.94 1012.94 0 0 1-.5-45z"/><path style="opacity:1" fill="#263d65" d="M289.5 72.5c-5.901 1.306-11.901 1.306-18 0-3.99-5.971-7.99-11.971-12-18a64.873 64.873 0 0 0-16-1v20h-16v-71a722.44 722.44 0 0 1 38 .5c17.698 3.233 25.198 13.733 22.5 31.5-1.918 7.587-6.418 13.087-13.5 16.5a804.057 804.057 0 0 1 15 21.5z"/><path style="opacity:1" fill="#283f67" d="M332.5 16.5v57h-17v-57c-7.148-.992-14.481-1.325-22-1v-13h61v13c-7.519-.325-14.852.008-22 1z"/><path style="opacity:1" fill="#263e66" d="M572.5 73.5c.167-14.004 0-28.004-.5-42-.717.544-1.217 1.21-1.5 2a54595.4 54595.4 0 0 0-19 32c-3.736 1.605-6.902.939-9.5-2a42573.026 42573.026 0 0 0-17.5-29c-.283-.79-.783-1.456-1.5-2-.5 13.663-.667 27.33-.5 41h-15v-71c4.93-.303 9.763.03 14.5 1a1337.308 1337.308 0 0 0 25.5 42 578.382 578.382 0 0 0 25.5-42 55.168 55.168 0 0 1 14.5-1v71h-15z"/><path style="opacity:1" fill="#fcfcfd" d="M389.5 15.5c21.342-1.824 31.175 7.842 29.5 29-6.642 15.397-17.809 19.897-33.5 13.5-9.962-8.004-12.795-18.171-8.5-30.5 2.744-5.58 6.911-9.58 12.5-12zM39.5 16.5c10.22 2.1 13.386 8.1 9.5 18-2.1 2.967-4.934 4.8-8.5 5.5-5.99.5-11.99.666-18 .5v-24h17zM261.5 16.5c10.628 2.693 13.462 9.026 8.5 19-1.952 2.394-4.452 3.894-7.5 4.5-5.991.5-11.991.666-18 .5v-24h17z"/><path style="opacity:1" fill="#ccd1db" d="M39.5 16.5h-17v24c-.993-8.15-1.326-16.483-1-25 6.19-.323 12.19.01 18 1z"/><path style="opacity:1" fill="#d8dce3" d="M261.5 16.5h-17v24c-.993-8.15-1.326-16.483-1-25 6.19-.323 12.19.01 18 1z"/><path style="opacity:1" fill="#f8f8fa" d="M645.5 44.5c-7 1.333-14 1.333-21 0a205.537 205.537 0 0 1 10.5-25 165.632 165.632 0 0 1 10.5 25z"/><path style="opacity:1" fill="#8c98ae" d="M175.5 15.5v15h33v14h-33v16c-.989-5.475-1.322-11.142-1-17h33v-12h-33c-.321-5.526.012-10.86 1-16z"/><path style="opacity:1" fill="#8d99ae" d="M927.5 15.5v15c11.179-.328 22.179.005 33 1h-34c-.321-5.526.012-10.86 1-16z"/><path style="opacity:1" fill="#b0b9c7" d="m846.5 32.5-2 41c-.167-14.337 0-28.67.5-43 .717.544 1.217 1.21 1.5 2z"/><path style="opacity:1" fill="#b2bac9" d="m524.5 34.5-2 39c-.167-13.67 0-27.337.5-41 .717.544 1.217 1.21 1.5 2z"/><path style="opacity:1" fill="#8390a7" d="M744.5 66.5v-29h-14c.324 6.854-.009 13.521-1 20v-21h16c.327 10.18-.006 20.18-1 30z"/><path style="opacity:1" fill="#73839c" d="M624.5 44.5c7 1.333 14 1.333 21 0 .543.06.876.393 1 1a66.627 66.627 0 0 1-23 0c.124-.607.457-.94 1-1z"/><path style="opacity:1" fill="#7b89a1" d="M960.5 43.5c-10.821.995-21.821 1.328-33 1v16c-.989-5.475-1.322-11.142-1-17h34z"/><path style="opacity:1" fill="#b1b9c7" d="m572.5 73.5-2-40c.283-.79.783-1.456 1.5-2 .5 13.996.667 27.996.5 42z"/><path style="opacity:1" fill="#c8ced8" d="M271.5 72.5c6.099 1.306 12.099 1.306 18 0 .543.06.876.393 1 1l-9.5 1c-3.576-.015-6.742-.682-9.5-2z"/><path style="opacity:1" fill="#a9b3c2" d="M474.5 2.5v71h16c-5.475.989-11.142 1.322-17 1-.331-24.172.002-48.172 1-72z"/><path style="opacity:1" fill="#c8cdd7" d="M674.5 72.5c.543.06.876.393 1 1-6.154 1.317-12.154 1.317-18 0 5.858.322 11.525-.011 17-1z"/><path style="opacity:1" fill="#a2acbd" d="M911.5 2.5v71h54v-13c.986 4.47 1.319 9.137 1 14h-56c-.331-24.172.002-48.172 1-72z"/><path style="opacity:1" fill="#838382" d="M774.5 94.5c1.699-.16 3.366.007 5 .5l-10 8c-1.667.667-3.333.667-5 0a126.484 126.484 0 0 0 10-8.5z"/><path style="opacity:1" fill="#b9bab9" d="M79.5 105.5a728.03 728.03 0 0 1 66-.5c-.544.717-1.211 1.217-2 1.5a1024.542 1024.542 0 0 0-64-1zM340.5 105.5a684.92 684.92 0 0 1 64-.5c-.544.717-1.211 1.217-2 1.5a961.42 961.42 0 0 0-62-1z"/><path style="opacity:1" fill="#9e9f9e" d="M161.5 104.5c14.337-.167 28.671 0 43 .5-10.457 13.784-23.79 23.784-40 30-17.951 5.806-34.284 14.473-49 26-12.68.833-25.347.666-38-.5 7.333-12.2 17-22.033 29-29.5a306.497 306.497 0 0 1 36-16c6.717-3.02 13.051-6.52 19-10.5zM422.5 104.5a507.128 507.128 0 0 1 45 1c-9.502 11.423-21.168 19.923-35 25.5a716.57 716.57 0 0 0-33 14 129.512 129.512 0 0 0-22 16 216.503 216.503 0 0 1-36-.5c8.583-16.416 21.249-28.582 38-36.5a488.517 488.517 0 0 0 43-19.5z"/><path style="opacity:1" fill="#9fa09f" d="M5.5 104.5a36.877 36.877 0 0 1 12 1 150.596 150.596 0 0 0-11.5 26 364.94 364.94 0 0 1-.5-27z"/><path style="opacity:1" fill="#9e9f9e" d="M26.5 104.5c13.337-.167 26.67 0 40 .5-17.604 15.018-29.27 33.851-35 56.5h-26a60.937 60.937 0 0 1 .5-11 474.724 474.724 0 0 1 20.5-46zM79.5 105.5c21.507-.331 42.84.003 64 1a225.065 225.065 0 0 0-48 22.5c-11.571 8.565-20.571 19.232-27 32-9.66.5-19.328.666-29 .5 5.286-19.413 15.286-35.913 30-49.5a80.472 80.472 0 0 1 10-6.5zM213.5 104.5a241.046 241.046 0 0 1 31 1c-9.314 26.48-26.981 44.98-53 55.5-21.333.667-42.667.667-64 0a183.434 183.434 0 0 1 40-19c19.445-7.626 34.778-20.126 46-37.5z"/><path style="opacity:1" fill="#9e9f9e" d="M252.5 104.5c9.69-.332 19.356.002 29 1a381.1 381.1 0 0 0-13.5 32 129.513 129.513 0 0 1-13 23 363.973 363.973 0 0 1-46.5.5c21.503-13.356 36.17-32.189 44-56.5z"/><path style="opacity:1" fill="#9fa09f" d="M290.5 104.5c12.671-.167 25.338 0 38 .5-15.711 15.572-26.711 34.072-33 55.5a171.233 171.233 0 0 1-32 .5 100.714 100.714 0 0 0 10.5-18.5 320.416 320.416 0 0 1 16.5-38z"/><path style="opacity:1" fill="#9e9f9e" d="M340.5 105.5a961.42 961.42 0 0 1 62 1c-22.946 6.549-42.446 18.549-58.5 36a166.151 166.151 0 0 0-11.5 18.5c-9.684.832-19.351.665-29-.5 6.085-20.689 17.085-38.189 33-52.5a16.58 16.58 0 0 0 4-2.5zM477.5 104.5a241.046 241.046 0 0 1 31 1c-6.448 17.421-17.115 31.588-32 42.5a167.677 167.677 0 0 1-27 13c-20 .667-40 .667-60 0a137.896 137.896 0 0 1 13-9 1045.837 1045.837 0 0 0 47-21c11.45-6.618 20.784-15.451 28-26.5z"/><path style="opacity:1" fill="#9e9f9e" d="M516.5 104.5c9.69-.332 19.356.002 29 1a471.959 471.959 0 0 1-20.5 46l-7.5 9.5a600.2 600.2 0 0 1-49 0c24.128-11.959 40.128-30.792 48-56.5z"/><path style="opacity:1" fill="#9fa09f" d="M554.5 104.5a324.95 324.95 0 0 1 36 1 149.346 149.346 0 0 0-15.5 20 396.66 396.66 0 0 0-15.5 35.5 171.233 171.233 0 0 1-32-.5 140.65 140.65 0 0 0 13.5-24c4.02-10.9 8.52-21.566 13.5-32z"/><path style="opacity:1" fill="#9e9f9e" d="M602.5 104.5h37a60.931 60.931 0 0 1-.5 11c-19.677 10.171-33.51 25.504-41.5 46h-29c5.492-22.677 16.825-41.677 34-57z"/><path style="opacity:1" fill="#a1a1a0" d="M681.5 108.5h-3v52h3c-1.068.934-2.401 1.268-4 1v-54c1.599-.268 2.932.066 4 1z"/><path style="opacity:1" fill="#777776" d="M864.5 108.5h3v52h-3v-52z"/><path style="opacity:1" fill="#787877" d="M754.5 111.5v21h28v3h-28v22h33v3h-36v-52a289.882 289.882 0 0 1 34 1c-10.492.667-20.826 1.333-31 2z"/><path style="opacity:1" fill="#8f8f8e" d="M864.5 108.5c1.068-.934 2.401-1.268 4-1v54c-1.599.268-2.932-.066-4-1h3v-52h-3z"/><path style="opacity:1" fill="#989897" d="M754.5 111.5c10.174-.667 20.508-1.333 31-2a289.882 289.882 0 0 0-34-1v52h36a342.787 342.787 0 0 1-37 1v-54h36v4h-32z"/><path style="opacity:1" fill="#7e7e7d" d="M1002.5 107.5c8-1.062 15.34.605 22 5-.39 1.22-1.22 1.887-2.5 2-6.1-3.479-12.6-4.645-19.5-3.5-9.833 3.906-11.499 9.906-5 18a103.66 103.66 0 0 0 21 7c8.02 3.922 10.19 10.089 6.5 18.5-6.89 6.592-15.05 8.759-24.5 6.5-4.76-.878-8.76-3.045-12-6.5.333-1 1-1.667 2-2 9.179 6.785 18.85 7.618 29 2.5 4.29-5.357 3.95-10.357-1-15a222.603 222.603 0 0 0-20-6c-9.692-5.506-11.358-12.839-5-22 2.824-2.079 5.824-3.579 9-4.5z"/><path style="opacity:1" fill="#7d7d7c" d="M955.5 107.5c1.644-.214 3.144.12 4.5 1a1075.215 1075.215 0 0 1 23.5 53c-1.478.262-2.811-.071-4-1a114.436 114.436 0 0 0-6-13 128.532 128.532 0 0 0-32 0 114.436 114.436 0 0 0-6 13c-1.333 1.333-2.667 1.333-4 0a97399.474 97399.474 0 0 1 24-53z"/><path style="opacity:1" fill="#fbfbfb" d="M970.5 141.5a85.021 85.021 0 0 1-26 0 561.173 561.173 0 0 1 13-29 561.173 561.173 0 0 1 13 29z"/><path style="opacity:1" fill="#9e9f9e" d="M638.5 124.5a342.787 342.787 0 0 1 1 37 289.882 289.882 0 0 1-34-1c7.564-15.227 18.564-27.227 33-36z"/><path style="opacity:1" fill="#c3c3c2" d="M728.5 108.5c1.068-.934 2.401-1.268 4-1v54h-5a462.903 462.903 0 0 0-1-43c-.131-.876.202-1.543 1-2a484.862 484.862 0 0 1 1 44h3v-52h-3z"/><path style="opacity:1" fill="#7f7f7e" d="M902.5 107.5c9.878-1.427 18.545 1.073 26 7.5l-2.5 2.5c-4.515-4.673-10.015-6.673-16.5-6-17.027 1.532-24.86 10.866-23.5 28 5.265 15.053 15.765 20.886 31.5 17.5a65.913 65.913 0 0 1 10-4.5c-.372 3.543-2.372 5.71-6 6.5-14.274 5.57-26.108 2.404-35.5-9.5-8.664-19.66-3.164-33.66 16.5-42z"/><path style="opacity:1" fill="#7a7a79" d="M681.5 108.5a1209.553 1209.553 0 0 0 23.5 40 1421.974 1421.974 0 0 0 23.5-40h3v52h-3a484.862 484.862 0 0 0-1-44c-.798.457-1.131 1.124-1 2a476.8 476.8 0 0 0-20 36c-1.175.219-2.175-.114-3-1l-21.5-37c-.5 14.663-.667 29.33-.5 44h-3v-52h3z"/><path style="opacity:1" fill="#b1b1b1" d="M944.5 141.5a85.021 85.021 0 0 0 26 0c.543.06.876.393 1 1a98.524 98.524 0 0 1-28 0c.124-.607.457-.94 1-1z"/><path style="opacity:1" fill="#80807f" d="M801.5 107.5c9.006-.166 18.006 0 27 .5 20.217 6.268 26.717 19.435 19.5 39.5-4.745 7.625-11.578 12.125-20.5 13.5-8.66.5-17.327.666-26 .5v-54z"/><path style="opacity:1" fill="#fefefe" d="M805.5 111.5c8.007-.166 16.007 0 24 .5 15.861 5.538 21.028 16.371 15.5 32.5-3.065 6.727-8.231 10.894-15.5 12.5-7.993.5-15.993.666-24 .5v-46z"/></svg>