<?xml version="1.0" encoding="UTF-8"?>
<!DOCTYPE svg PUBLIC "-//W3C//DTD SVG 1.1//EN" "http://www.w3.org/Graphics/SVG/1.1/DTD/svg11.dtd">
<svg xmlns="http://www.w3.org/2000/svg" version="1.1" width="191px" height="191px" style="shape-rendering:geometricPrecision; text-rendering:geometricPrecision; image-rendering:optimizeQuality; fill-rule:evenodd; clip-rule:evenodd" xmlns:xlink="http://www.w3.org/1999/xlink">
<g><path style="opacity:1" fill="#ebebe6" d="M -0.5,0.5 C 62.8333,0.5 126.167,0.5 189.5,0.5C 189.5,63.8333 189.5,127.167 189.5,190.5C 126.167,190.5 62.8333,190.5 -0.5,190.5C -0.5,127.167 -0.5,63.8333 -0.5,0.5 Z"/></g>
<g><path style="opacity:1" fill="#263e65" d="M 173.5,143.5 C 174.051,146.807 174.384,150.14 174.5,153.5C 173.474,156.372 171.808,158.872 169.5,161C 145.222,182.616 118.889,185.283 90.5,169C 61.2801,149.446 38.7801,123.946 23,92.5C 16.6957,77.33 14.6957,61.6633 17,45.5C 22.3474,30.8061 31.514,18.9728 44.5,10C 47.7024,8.51674 51.0357,8.1834 54.5,9C 58.579,11.0751 62.079,13.9084 65,17.5C 70.4411,25.3804 75.1077,33.7137 79,42.5C 79.9369,47.4033 79.2702,52.0699 77,56.5C 71.1881,62.0681 65.1881,67.4015 59,72.5C 56.9703,78.2552 57.3037,83.9219 60,89.5C 69.2967,108.131 82.7967,122.965 100.5,134C 105.257,134.81 109.924,134.476 114.5,133C 119.833,128.333 125.167,123.667 130.5,119C 134.039,117.496 137.705,117.163 141.5,118C 154.399,123.736 165.065,132.236 173.5,143.5 Z"/></g>
<g><path style="opacity:1" fill="#65758e" d="M 173.5,143.5 C 174.972,145.117 175.639,147.117 175.5,149.5C 175.489,151.045 175.156,152.378 174.5,153.5C 174.384,150.14 174.051,146.807 173.5,143.5 Z"/></g>
</svg>
