<?xml version="1.0" encoding="UTF-8"?>
<!DOCTYPE svg PUBLIC "-//W3C//DTD SVG 1.1//EN" "http://www.w3.org/Graphics/SVG/1.1/DTD/svg11.dtd">
<svg xmlns="http://www.w3.org/2000/svg" version="1.1" width="156px" height="115px" style="shape-rendering:geometricPrecision; text-rendering:geometricPrecision; image-rendering:optimizeQuality; fill-rule:evenodd; clip-rule:evenodd" xmlns:xlink="http://www.w3.org/1999/xlink">
<g><path style="opacity:1" fill="#fdfdfd" d="M -0.5,0.5 C 51.5,0.5 103.5,0.5 155.5,0.5C 155.5,38.5 155.5,76.5 155.5,114.5C 103.5,114.5 51.5,114.5 -0.5,114.5C -0.5,76.5 -0.5,38.5 -0.5,0.5 Z"/></g>
<g><path style="opacity:1" fill="#30476a" d="M 26.5,16.5 C 61.5016,16.3333 96.5016,16.5 131.5,17C 133,17.8333 134.167,19 135,20.5C 135.667,43.5 135.667,66.5 135,89.5C 133.786,91.0488 132.286,92.2155 130.5,93C 96.1667,93.6667 61.8333,93.6667 27.5,93C 26.3333,91.8333 25.1667,90.6667 24,89.5C 23.3333,66.1667 23.3333,42.8333 24,19.5C 25.045,18.6266 25.8783,17.6266 26.5,16.5 Z"/></g>
<g><path style="opacity:1" fill="#fcfcfd" d="M 29.5,22.5 C 62.8333,22.5 96.1667,22.5 129.5,22.5C 129.5,43.8333 129.5,65.1667 129.5,86.5C 96.1667,86.5 62.8333,86.5 29.5,86.5C 29.5,65.1667 29.5,43.8333 29.5,22.5 Z"/></g>
<g><path style="opacity:1" fill="#2a4366" d="M 34.5,27.5 C 36.1992,27.3398 37.8659,27.5065 39.5,28C 52.3921,38.5633 65.5588,48.73 79,58.5C 92.1072,49.064 104.941,39.2306 117.5,29C 120.714,26.5557 123.048,27.0557 124.5,30.5C 124.124,32.3829 123.124,33.8829 121.5,35C 108.215,44.6171 95.2149,54.6171 82.5,65C 81.2713,65.7811 79.938,66.2811 78.5,66.5C 63.2617,55.4377 48.4284,43.771 34,31.5C 33.4209,30.0715 33.5876,28.7382 34.5,27.5 Z"/></g>
</svg>
