<?xml version="1.0" encoding="UTF-8"?>
<!DOCTYPE svg PUBLIC "-//W3C//DTD SVG 1.1//EN" "http://www.w3.org/Graphics/SVG/1.1/DTD/svg11.dtd">
<svg xmlns="http://www.w3.org/2000/svg" version="1.1" width="197px" height="197px" style="shape-rendering:geometricPrecision; text-rendering:geometricPrecision; image-rendering:optimizeQuality; fill-rule:evenodd; clip-rule:evenodd" xmlns:xlink="http://www.w3.org/1999/xlink">
<g><path style="opacity:1" fill="#eaebe6" d="M -0.5,0.5 C 64.8333,0.5 130.167,0.5 195.5,0.5C 195.5,65.8333 195.5,131.167 195.5,196.5C 130.167,196.5 64.8333,196.5 -0.5,196.5C -0.5,131.167 -0.5,65.8333 -0.5,0.5 Z"/></g>
<g><path style="opacity:1" fill="#c1c6ca" d="M 91.5,10.5 C 95.3188,9.83443 99.3188,9.5011 103.5,9.5C 107.893,9.5093 111.893,10.176 115.5,11.5C 107.514,10.901 99.5136,10.5676 91.5,10.5 Z"/></g>
<g><path style="opacity:1" fill="#283f67" d="M 91.5,10.5 C 99.5136,10.5676 107.514,10.901 115.5,11.5C 153.662,20.4951 176.828,44.1618 185,82.5C 188.367,127.965 169.2,159.465 127.5,177C 112.296,181.771 96.9624,182.605 81.5,179.5C 79.4855,178.076 77.1522,177.41 74.5,177.5C 68.8572,175.93 63.3572,173.93 58,171.5C 43.5095,175.248 29.0095,178.914 14.5,182.5C 17.4495,167.869 21.1161,153.369 25.5,139C 8.33634,104.297 11.1697,71.4635 34,40.5C 49.2079,22.9788 68.3746,12.9788 91.5,10.5 Z"/></g>
<g><path style="opacity:1" fill="#abb3bc" d="M 106.5,25.5 C 99.1507,25.5488 91.8174,25.8822 84.5,26.5C 91.7768,24.4811 99.1102,24.1478 106.5,25.5 Z"/></g>
<g><path style="opacity:1" fill="#eaeae5" d="M 106.5,25.5 C 138.349,29.5103 159.183,46.8437 169,77.5C 175.533,110.245 165.366,136.411 138.5,156C 121.747,165.793 103.747,169.126 84.5,166C 75.9019,163.361 67.5685,160.194 59.5,156.5C 51.341,157.873 43.341,159.873 35.5,162.5C 35.1667,161.833 34.8333,161.167 34.5,160.5C 36.6623,152.85 38.6623,145.183 40.5,137.5C 40.3333,136.167 40.1667,134.833 40,133.5C 24.3911,107.298 24.7244,81.2983 41,55.5C 51.8691,40.1646 66.3691,30.4979 84.5,26.5C 91.8174,25.8822 99.1507,25.5488 106.5,25.5 Z"/></g>
<g><path style="opacity:1" fill="#283f66" d="M 66.5,56.5 C 69.8499,56.335 73.1832,56.5017 76.5,57C 80.4391,63.3822 83.4391,70.2155 85.5,77.5C 83.5562,81.8878 81.2229,86.0545 78.5,90C 84.9347,102.433 94.6014,111.433 107.5,117C 109.167,117.667 110.833,117.667 112.5,117C 114.333,114.5 116.167,112 118,109.5C 119.117,107.876 120.617,106.876 122.5,106.5C 129.283,109.391 135.949,112.558 142.5,116C 144.015,126.274 139.682,132.94 129.5,136C 115.568,137.58 102.902,134.247 91.5,126C 79.5789,117.414 69.7455,106.914 62,94.5C 55.8359,84.3953 55.1692,74.0619 60,63.5C 61.728,60.6703 63.8947,58.337 66.5,56.5 Z"/></g>
<g><path style="opacity:1" fill="#5f6f8b" d="M 74.5,177.5 C 77.1522,177.41 79.4855,178.076 81.5,179.5C 78.8478,179.59 76.5145,178.924 74.5,177.5 Z"/></g>
</svg>
